<?xml version="1.0" standalone="no"?>
<!DOCTYPE svg PUBLIC "-//W3C//DTD SVG 1.1//EN" "http://www.w3.org/Graphics/SVG/1.1/DTD/svg11.dtd" >
<svg xmlns="http://www.w3.org/2000/svg">
<metadata>
<json>
<![CDATA[
{
	"fontFamily": "Topvisor-2",
	"majorVersion": 1,
	"minorVersion": 0,
	"version": "Version 1.0",
	"fontId": "Topvisor-2",
	"psName": "Topvisor-2",
	"subFamily": "Regular",
	"fullName": "Topvisor-2",
	"description": "Font generated by IcoMoon."
}
]]>
</json>
</metadata>
<defs>
<font id="Topvisor-2" horiz-adv-x="1024">
<font-face units-per-em="1024" ascent="768" descent="-256" />
<missing-glyph horiz-adv-x="1024" />
<glyph unicode="&#x20;" horiz-adv-x="512" d="" />
<glyph unicode="&#xe900;" glyph-name="arrow-down" data-tags="arrow-down" d="M798.17 200.836c-16.661 16.661-43.678 16.661-60.339 0l-183.164-183.164v579.661c0 23.564-19.102 42.667-42.667 42.667s-42.667-19.103-42.667-42.667v-579.661l-183.163 183.164c-16.663 16.661-43.677 16.661-60.34 0s-16.662-43.678 0-60.339l256-256c16.661-16.661 43.678-16.661 60.339 0l256 256c16.661 16.661 16.661 43.678 0 60.339z" />
<glyph unicode="&#xe901;" glyph-name="arrow-left" data-tags="arrow-left" d="M456.836 542.17c16.661-16.663 16.661-43.677 0-60.34l-183.163-183.163h579.66c23.565 0 42.667-19.102 42.667-42.667s-19.102-42.667-42.667-42.667h-579.66l183.163-183.164c16.661-16.661 16.661-43.678 0-60.339s-43.677-16.661-60.34 0l-256 256c-16.662 16.661-16.662 43.678 0 60.339l256 256c16.663 16.662 43.678 16.662 60.34 0z" />
<glyph unicode="&#xe902;" glyph-name="arrow-right" data-tags="arrow-right" d="M567.164 542.17c-16.661-16.663-16.661-43.677 0-60.34l183.164-183.163h-579.661c-23.564 0-42.667-19.102-42.667-42.667s19.103-42.667 42.667-42.667h579.661l-183.164-183.164c-16.661-16.661-16.661-43.678 0-60.339s43.678-16.661 60.339 0l256 256c16.661 16.661 16.661 43.678 0 60.339l-256 256c-16.661 16.662-43.678 16.662-60.339 0z" />
<glyph unicode="&#xe903;" glyph-name="arrow-up" data-tags="arrow-up" d="M798.17 311.164c-16.661-16.661-43.678-16.661-60.339 0l-183.164 183.163v-579.66c0-23.565-19.102-42.667-42.667-42.667s-42.667 19.102-42.667 42.667v579.66l-183.163-183.163c-16.663-16.661-43.677-16.661-60.34 0s-16.662 43.677 0 60.34l256 256c16.661 16.662 43.678 16.662 60.339 0l256-256c16.661-16.663 16.661-43.678 0-60.34z" />
<glyph unicode="&#xe904;" glyph-name="savings-fill" data-tags="savings-fill" d="M841.421 384h11.909c47.135 0 85.34-38.205 85.34-85.33v-85.34c0-47.124-38.205-85.33-85.34-85.33 0 0-2.744 0-2.744 0-1.894-13.824-5.089-29.225-10.496-44.052-12.237-33.618-34.222-64.195-72.090-77.251v-92.027c0-23.572-19.098-42.67-42.67-42.67h-170.66c-23.572 0-42.67 19.098-42.67 42.67 0 0 0 42.66 0 42.66s-42.67 0-42.67 0v-42.66c0-23.572-19.098-42.67-42.66-42.67h-170.67c-23.562 0-42.67 19.098-42.67 42.67 0 0 0 102.349 0.020 102.328-44.288 27.085-128.020 97.044-128.020 239.002 0 298.67 298.67 298.67 298.67 298.67s200.417 0 200.417 0l117.248 78.162c11.069 7.383 24.934 9.175 37.519 4.854 12.575-4.311 22.426-14.244 26.624-26.86l75.612-226.826zM384 341.33h213.33c23.552 0 42.67 19.118 42.67 42.67s-19.118 42.67-42.67 42.67h-213.33c-23.552 0-42.67-19.118-42.67-42.67s19.118-42.67 42.67-42.67z" />
<glyph unicode="&#xe905;" glyph-name="savings" data-tags="savings" d="M841.421 384l-75.612 226.826c-4.198 12.616-14.049 22.548-26.624 26.86-12.585 4.321-26.45 2.529-37.519-4.854l-117.248-78.162c0 0-200.417 0-200.417 0s-298.67 0-298.67-298.67c0-141.957 83.732-211.917 128.020-239.002-0.020 0.020-0.020-102.328-0.020-102.328 0-23.572 19.108-42.67 42.67-42.67h170.67c23.562 0 42.66 19.098 42.66 42.67v42.66c0 0 42.67 0 42.67 0s0-42.66 0-42.66c0-23.572 19.098-42.67 42.67-42.67h170.66c23.572 0 42.67 19.098 42.67 42.67v92.027c37.868 13.056 59.853 43.633 72.090 77.251 5.407 14.828 8.602 30.228 10.496 44.052 0 0 2.744 0 2.744 0 47.135 0 85.34 38.205 85.34 85.33v85.34c0 47.124-38.205 85.33-85.34 85.33h-11.909zM808.95 298.701l44.38-0.031c0 0 0-85.34 0-85.34s0 0-42.045 0c-43.284 0-43.284-42.66-43.284-42.66s0.41-34.181-8.090-57.518c-5.079-13.947-14.275-27.822-34.58-27.822-23.562 0-42.66-19.098-42.66-42.66v-85.34c0 0-85.34 0-85.34 0s0 42.67 0 42.67c0 23.562-19.098 42.67-42.66 42.67h-128c-23.572 0-42.67-19.108-42.67-42.67v-42.67c0 0-85.33 0-85.33 0s0 85.34 0 85.34c0 17.418-10.598 33.096-26.767 39.588 0 0-101.233 42.865-101.233 173.742 0 213.33 213.33 213.33 213.33 213.33s213.33 0 213.33 0c8.428 0 16.66 2.499 23.675 7.168l81.521 54.344 67.666-202.998c5.622-16.876 21.105-28.436 38.758-29.143zM384 341.33h213.33c23.552 0 42.67 19.118 42.67 42.67s-19.118 42.67-42.67 42.67h-213.33c-23.552 0-42.67-19.118-42.67-42.67s19.118-42.67 42.67-42.67z" />
<glyph unicode="&#xe906;" glyph-name="bell-fill" data-tags="bell-fill" d="M322.253-123.494c0 0 94.904-47.176 189.747-47.176s189.747 47.176 189.747 47.176c21.064 10.527 29.614 36.178 19.077 57.242-10.527 21.064-36.178 29.614-57.242 19.077 0 0-75.756-38.154-151.583-38.154s-151.583 38.154-151.583 38.154c-21.064 10.537-46.715 1.987-57.242-19.077-10.537-21.064-1.987-46.715 19.077-57.242zM896 0c18.801 0 35.389 12.308 40.837 30.3 5.448 18.002-1.526 37.437-17.172 47.872 0 0-108.995 73.83-108.995 220.498 0 47.34-0.266 105.718-11.868 161.618-12.964 62.484-39.977 121.59-91.832 163.389-43.715 35.246-105.748 58.993-194.97 58.993s-151.255-23.747-194.97-58.993c-51.855-41.8-78.868-100.905-91.832-163.389-11.602-55.9-11.868-114.278-11.868-161.618 0-146.678-108.954-220.508-108.954-220.508-15.636-10.435-22.61-29.87-17.162-47.862s22.036-30.3 40.837-30.3h767.949z" />
<glyph unicode="&#xe907;" glyph-name="bell" data-tags="bell" d="M322.253-123.494c0 0 94.904-47.176 189.747-47.176s189.747 47.176 189.747 47.176c21.064 10.527 29.614 36.178 19.077 57.242-10.527 21.064-36.178 29.614-57.242 19.077 0 0-75.756-38.154-151.583-38.154s-151.583 38.154-151.583 38.154c-21.064 10.537-46.715 1.987-57.242-19.077-10.537-21.064-1.987-46.715 19.077-57.242zM896 0c18.801 0 35.389 12.308 40.837 30.3 5.448 18.002-1.526 37.437-17.172 47.872 0 0-108.995 73.83-108.995 220.498 0 47.34-0.266 105.718-11.868 161.618-12.964 62.484-39.977 121.59-91.832 163.389-43.715 35.246-105.748 58.993-194.97 58.993s-151.255-23.747-194.97-58.993c-51.855-41.8-78.868-100.905-91.832-163.389-11.602-55.9-11.868-114.278-11.868-161.618 0-146.678-108.954-220.508-108.954-220.508-15.636-10.435-22.61-29.87-17.162-47.862s22.036-30.3 40.837-30.3h767.949zM794.808 85.33h-565.596c35.359 48.507 69.458 119.572 69.458 213.34 0 42.25-0.266 94.382 10.086 144.282 8.98 43.325 25.876 85.309 61.829 114.299 31.549 25.426 77.036 40.079 141.414 40.079s109.865-14.653 141.414-40.079c35.953-28.989 52.849-70.973 61.829-114.299 10.353-49.9 10.086-102.031 10.086-144.282 0-93.778 34.109-164.844 69.468-213.33l0.010-0.010z" />
<glyph unicode="&#xe908;" glyph-name="calendar-fill" data-tags="calendar-fill" d="M938.67 256c0 0-853.34 0-853.34 0s0-298.67 0-298.67c0-33.946 13.486-66.499 37.499-90.511 24.003-24.003 56.556-37.489 90.501-37.489 147.763 0 449.577 0 597.34 0 33.946 0 66.499 13.486 90.501 37.489 24.013 24.013 37.499 56.566 37.499 90.511v298.67zM341.33 554.67v85.33c0 23.552-19.118 42.67-42.66 42.67-23.552 0-42.67-19.118-42.67-42.67v-85.33h-42.67c-33.946 0-66.499-13.486-90.501-37.489-24.013-24.013-37.499-56.566-37.499-90.511v-85.34h853.34v85.34c0 33.946-13.486 66.499-37.499 90.511-24.003 24.003-56.556 37.489-90.501 37.489h-42.67v85.33c0 23.552-19.118 42.67-42.67 42.67-23.542 0-42.66-19.118-42.66-42.67v-85.33h-341.34z" />
<glyph unicode="&#xe909;" glyph-name="calendar" data-tags="calendar" d="M682.67 554.67h-341.34v85.33c0 23.552-19.118 42.67-42.66 42.67-23.552 0-42.67-19.118-42.67-42.67v-85.33h-42.67c-33.946 0-66.499-13.486-90.501-37.489-24.013-24.013-37.499-56.566-37.499-90.511 0-122.491 0-346.849 0-469.34 0-33.946 13.486-66.499 37.499-90.511 24.003-24.003 56.556-37.489 90.501-37.489 147.763 0 449.577 0 597.34 0 33.946 0 66.499 13.486 90.501 37.489 24.013 24.013 37.499 56.566 37.499 90.511 0 122.491 0 346.849 0 469.34 0 33.946-13.486 66.499-37.499 90.511-24.003 24.003-56.556 37.489-90.501 37.489h-42.67v85.33c0 23.552-19.118 42.67-42.67 42.67-23.542 0-42.66-19.118-42.66-42.67v-85.33zM853.33 256v-298.67c0-11.315-4.495-22.17-12.493-30.167s-18.852-12.493-30.167-12.493h-597.34c-11.315 0-22.17 4.495-30.167 12.493s-12.493 18.852-12.493 30.167v298.67h682.66zM256 469.33v-42.66c0-23.552 19.118-42.67 42.67-42.67 23.542 0 42.66 19.118 42.66 42.67v42.66h341.34v-42.66c0-23.552 19.118-42.67 42.66-42.67 23.552 0 42.67 19.118 42.67 42.67v42.66h42.67c11.315 0 22.17-4.495 30.167-12.493s12.493-18.852 12.493-30.167v-85.34h-682.66v85.34c0 11.315 4.495 22.17 12.493 30.167s18.852 12.493 30.167 12.493h42.67z" />
<glyph unicode="&#xe90a;" glyph-name="case-fill" data-tags="case-fill" d="M85.33 229.632l194.253-97.126c5.929-2.959 12.462-4.506 19.087-4.506h426.66c6.625 0 13.158 1.546 19.087 4.506l194.253 97.126v-229.396c0-34.007-13.517-66.621-37.56-90.675-24.054-24.054-56.668-37.56-90.675-37.56h-598.415c-69.97 0-126.689 56.719-126.689 126.689v230.943zM298.67 469.33v43.551c0 70.205 56.914 127.119 127.119 127.119h169.748c34.427 0 67.441-13.67 91.781-38.011s38.011-57.354 38.011-91.781c0-20.408 0-37.192 0-40.346v-0.532h85.647c33.864 0 66.345-13.445 90.286-37.396 23.951-23.951 37.407-56.422 37.407-90.296v-16.599l-223.406-111.708c0 0-406.528 0-406.528 0l-223.406 111.708v15.596c0 71.076 57.62 128.696 128.707 128.696h84.634zM640 469.33c0 0 0 40.878 0 40.878 0 11.796-4.68 23.101-13.025 31.437-8.335 8.335-19.64 13.025-31.427 13.025h-169.769c-23.071 0-41.779-18.708-41.779-41.789v-42.977c0-0.184 0-0.379 0-0.573h256z" />
<glyph unicode="&#xe90b;" glyph-name="case" data-tags="case" d="M298.67 469.33v43.551c0 70.205 56.914 127.119 127.119 127.119h169.748c34.427 0 67.441-13.67 91.781-38.011s38.011-57.354 38.011-91.781c0-20.408 0-37.192 0-40.346 0-0.174 0-0.348 0-0.532h85.647c33.864 0 66.345-13.445 90.286-37.396 23.951-23.951 37.407-56.422 37.407-90.296v-341.402c0-34.007-13.517-66.621-37.56-90.675-24.054-24.054-56.668-37.56-90.675-37.56h-598.415c-69.97 0-126.689 56.719-126.689 126.689v341.944c0 71.076 57.62 128.696 128.707 128.696h84.634zM170.67 186.962v-188.273c0-22.835 18.514-41.359 41.349-41.359 0 0 598.405 0 598.415 0 11.377 0 22.282 4.526 30.331 12.575 8.049 8.038 12.564 18.954 12.564 30.331v186.726l-108.913-54.456c-5.929-2.959-12.462-4.506-19.087-4.506h-426.66c-6.625 0-13.158 1.546-19.087 4.506l-108.913 54.456zM853.33 282.368v59.279c0 11.233-4.454 22.006-12.401 29.942-7.946 7.946-18.719 12.411-29.952 12.411 0 0-596.941 0-596.941 0-23.951 0-43.366-19.415-43.366-43.366v-58.266l138.066-69.038c0 0 406.528 0 406.528 0l138.066 69.038zM640 469.33c0 0 0 40.878 0 40.878 0 11.796-4.68 23.101-13.025 31.437-8.335 8.335-19.64 13.025-31.427 13.025h-169.769c-23.071 0-41.779-18.708-41.779-41.789v-42.977c0-0.184 0-0.379 0-0.573h256z" />
<glyph unicode="&#xe90c;" glyph-name="chevron-down" data-tags="chevron-down" d="M780.493 414.167l-268.493-268.493c0 0-268.493 268.493-268.493 268.493-16.65 16.65-43.694 16.65-60.344 0s-16.65-43.684 0-60.334l298.67-298.67c16.66-16.66 43.674-16.66 60.334 0l298.67 298.67c16.65 16.65 16.65 43.684 0 60.334s-43.694 16.65-60.344 0z" />
<glyph unicode="&#xe90d;" glyph-name="chevron-left" data-tags="chevron-left" d="M670.167-12.493l-268.493 268.493c0 0 268.493 268.493 268.493 268.493 16.65 16.65 16.65 43.694 0 60.344s-43.684 16.65-60.334 0l-298.67-298.67c-16.66-16.66-16.66-43.674 0-60.334l298.67-298.67c16.65-16.65 43.684-16.65 60.334 0s16.65 43.694 0 60.344z" />
<glyph unicode="&#xe90e;" glyph-name="chevron-right" data-tags="chevron-right" d="M353.833 524.493l268.493-268.493c0 0-268.493-268.493-268.493-268.493-16.65-16.65-16.65-43.694 0-60.344s43.684-16.65 60.334 0l298.67 298.67c16.66 16.66 16.66 43.674 0 60.334l-298.67 298.67c-16.65 16.65-43.684 16.65-60.334 0s-16.65-43.694 0-60.344z" />
<glyph unicode="&#xe90f;" glyph-name="chevron-up" data-tags="chevron-up" d="M243.507 97.833l268.493 268.493c0 0 268.493-268.493 268.493-268.493 16.65-16.65 43.694-16.65 60.344 0s16.65 43.684 0 60.334l-298.67 298.67c-16.66 16.66-43.674 16.66-60.334 0l-298.67-298.67c-16.65-16.65-16.65-43.684 0-60.334s43.694-16.65 60.344 0z" />
<glyph unicode="&#xe910;" glyph-name="grid-fill" data-tags="grid-fill" d="M553.718 85.443v-128.113c0-70.687 57.303-128 128-128 40.407 0 88.545 0 128.952 0 70.687 0 128 57.313 128 128v128.113c0 70.697-57.313 128-128 128-40.407 0-88.545 0-128.952 0-70.697 0-128-57.303-128-128zM84.378 85.443v-128.113c0.010-70.687 57.313-128 128.010-128 40.397 0 88.535 0 128.942 0 70.697 0 128 57.313 128 128v128.113c0 70.697-57.303 128-128 128-40.407 0-88.545 0-128.942 0-70.697 0-128-57.303-128.010-128zM553.718 554.783v-128.113c0-70.697 57.303-128 128-128 40.407 0 88.545 0 128.952 0 70.687 0 128 57.303 128 128v128.113c0 70.687-57.313 128-128 128-40.407 0-88.545 0-128.952 0-70.697 0-128-57.313-128-128zM84.378 554.783v-128.113c0.010-70.697 57.313-128 128.010-128 40.397 0 88.535 0 128.942 0 70.697 0 128 57.303 128 128v128.113c0 70.687-57.303 128-128 128-40.407 0-88.545 0-128.942 0-70.697 0-128-57.313-128.010-128z" />
<glyph unicode="&#xe911;" glyph-name="grid" data-tags="grid" d="M553.718 85.443v-128.113c0-70.687 57.303-128 128-128 40.407 0 88.545 0 128.952 0 70.687 0 128 57.313 128 128v128.113c0 70.697-57.313 128-128 128-40.407 0-88.545 0-128.952 0-70.697 0-128-57.303-128-128zM84.378 85.443v-128.113c0.010-70.687 57.313-128 128.010-128 40.397 0 88.535 0 128.942 0 70.697 0 128 57.313 128 128v128.113c0 70.697-57.303 128-128 128-40.407 0-88.545 0-128.942 0-70.697 0-128-57.303-128.010-128zM639.048 85.453c0 23.562 19.108 42.66 42.67 42.66h128.952c23.562 0 42.66-19.098 42.66-42.66 0-0.010 0-128.123 0-128.123 0-23.562-19.098-42.66-42.66-42.66h-128.952c-23.562 0-42.67 19.098-42.67 42.66v128.123zM169.718 85.453c0 23.562 19.098 42.66 42.66 42.66h128.952c23.562 0 42.67-19.098 42.67-42.66 0-0.010 0-128.123 0-128.123 0-23.562-19.108-42.66-42.67-42.66h-128.952c-23.562 0-42.66 19.098-42.66 42.66v128.123zM553.718 554.783v-128.113c0-70.697 57.303-128 128-128 40.407 0 88.545 0 128.952 0 70.687 0 128 57.303 128 128v128.113c0 70.687-57.313 128-128 128-40.407 0-88.545 0-128.952 0-70.697 0-128-57.313-128-128zM84.378 554.783v-128.113c0.010-70.697 57.313-128 128.010-128 40.397 0 88.535 0 128.942 0 70.697 0 128 57.303 128 128v128.113c0 70.687-57.303 128-128 128-40.407 0-88.545 0-128.942 0-70.697 0-128-57.313-128.010-128zM639.048 554.783c0 23.562 19.108 42.66 42.67 42.66h128.952c23.562 0 42.66-19.098 42.66-42.66 0 0 0-128.113 0-128.113 0-23.572-19.098-42.67-42.66-42.67h-128.952c-23.562 0-42.67 19.098-42.67 42.66v128.123zM169.718 554.783c0 23.562 19.098 42.66 42.66 42.66h128.952c23.562 0 42.67-19.098 42.67-42.66 0 0 0-128.113 0-128.113 0-23.572-19.108-42.67-42.67-42.67h-128.952c-23.562 0-42.66 19.098-42.66 42.66v128.123z" />
<glyph unicode="&#xe912;" glyph-name="mail-fill" data-tags="mail-fill" d="M85.33 327.762v-242.432c0-70.687 57.313-128 128-128 147.763 0 449.577 0 597.34 0 70.687 0 128 57.313 128 128v242.432l-411.689-154.378c-9.656-3.625-20.306-3.625-29.962 0l-411.689 154.378zM85.33 418.898l426.67-160 426.67 160v7.772c0 70.687-57.313 128-128 128-147.763 0-449.577 0-597.34 0-70.687 0-128-57.313-128-128v-7.772z" />
<glyph unicode="&#xe913;" glyph-name="mail" data-tags="mail" d="M938.67 85.33c0-70.687-57.313-128-128-128-147.763 0-449.577 0-597.34 0-70.687 0-128 57.313-128 128v341.34c0 70.687 57.313 128 128 128 147.763 0 449.577 0 597.34 0 70.687 0 128-57.313 128-128v-341.34zM170.67 295.762v-210.432c0-23.562 19.098-42.66 42.66-42.66h597.34c23.562 0 42.66 19.098 42.66 42.66v210.432l-326.349-122.378c-9.656-3.625-20.306-3.625-29.962 0l-326.349 122.378zM853.33 386.898v39.772c0 23.562-19.098 42.66-42.66 42.66h-597.34c-23.562 0-42.66-19.098-42.66-42.66v-39.772l341.33-128 341.33 128z" />
<glyph unicode="&#xe914;" glyph-name="menu" data-tags="menu" d="M896 170.67h-768.952c-23.552 0-42.67-19.118-42.67-42.67s19.118-42.67 42.67-42.67h768.952c23.552 0 42.67 19.118 42.67 42.67s-19.118 42.67-42.67 42.67zM127.048 341.33h768.952c23.552 0 42.67 19.118 42.67 42.67s-19.118 42.67-42.67 42.67h-768.952c-23.552 0-42.67-19.118-42.67-42.67s19.118-42.67 42.67-42.67z" />
<glyph unicode="&#xe915;" glyph-name="price_tag-fill" data-tags="price_tag-fill" d="M938.67 640v-256c0-11.315-4.495-22.17-12.503-30.167l-512-512c-16.66-16.66-43.674-16.66-60.334 0l-256 256c-16.66 16.66-16.66 43.674 0 60.334l512 512c7.997 8.008 18.852 12.503 30.167 12.503h256c23.562 0 42.67-19.108 42.67-42.67zM414.167 12.493l128 128c16.65 16.65 16.65 43.694 0 60.344s-43.684 16.65-60.334 0l-128-128c-16.65-16.65-16.65-43.694 0-60.344s43.684-16.65 60.334 0zM328.837 97.833l128 128c16.65 16.65 16.65 43.684 0 60.334s-43.694 16.65-60.344 0l-128-128c-16.65-16.65-16.65-43.684 0-60.334s43.694-16.65 60.344 0zM725.33 554.67c-47.094 0-85.33-38.236-85.33-85.34 0-47.094 38.236-85.33 85.33-85.33 47.104 0 85.34 38.236 85.34 85.33 0 47.104-38.236 85.34-85.34 85.34z" />
<glyph unicode="&#xe916;" glyph-name="price_tag" data-tags="price_tag" d="M938.67 640c0 23.562-19.108 42.67-42.67 42.67h-256c-11.315 0-22.17-4.495-30.167-12.503l-512-512c-16.66-16.66-16.66-43.674 0-60.334l256-256c16.66-16.66 43.674-16.66 60.334 0l512 512c8.008 7.997 12.503 18.852 12.503 30.167v256zM853.33 597.33v-195.656c0 0-469.33-469.33-469.33-469.33s-195.656 195.656-195.656 195.656c0 0 469.33 469.33 469.33 469.33h195.656zM414.167 12.493l128 128c16.65 16.65 16.65 43.694 0 60.344s-43.684 16.65-60.334 0l-128-128c-16.65-16.65-16.65-43.694 0-60.344s43.684-16.65 60.334 0zM328.837 97.833l128 128c16.65 16.65 16.65 43.684 0 60.334s-43.694 16.65-60.344 0l-128-128c-16.65-16.65-16.65-43.684 0-60.334s43.694-16.65 60.344 0zM725.33 554.67c-47.094 0-85.33-38.236-85.33-85.34 0-47.094 38.236-85.33 85.33-85.33 47.104 0 85.34 38.236 85.34 85.33 0 47.104-38.236 85.34-85.34 85.34z" />
<glyph unicode="&#xe917;" glyph-name="map_point-fill" data-tags="map_point-fill" d="M512 682.67c188.385 0 341.33-152.945 341.33-341.34 0-188.529-114.944-361.021-213.668-447.355-49.633-43.397-97.546-64.645-127.662-64.645s-78.029 21.248-127.662 64.645c-98.724 86.333-213.668 258.826-213.668 447.355 0 188.396 152.945 341.34 341.33 341.34zM512 512c-94.198 0-170.67-76.472-170.67-170.67 0-94.188 76.472-170.66 170.67-170.66s170.67 76.472 170.67 170.66c0 94.198-76.472 170.67-170.67 170.67z" />
<glyph unicode="&#xe918;" glyph-name="map_point" data-tags="map_point" d="M512 682.67c-188.385 0-341.33-152.945-341.33-341.34 0-188.529 114.944-361.021 213.668-447.355 49.633-43.397 97.546-64.645 127.662-64.645s78.029 21.248 127.662 64.645c98.724 86.333 213.668 258.826 213.668 447.355 0 188.396-152.945 341.34-341.33 341.34zM512 597.33c141.292 0 256-114.708 256-256 0-161.71-99.83-309.064-184.515-383.119-16.947-14.817-33.188-26.593-47.852-34.55-9.298-5.048-17.111-8.991-23.634-8.991s-14.336 3.942-23.634 8.991c-14.664 7.956-30.904 19.732-47.852 34.55-84.685 74.056-184.515 221.409-184.515 383.119 0 141.292 114.708 256 256 256zM512 512c-94.198 0-170.67-76.472-170.67-170.67 0-94.188 76.472-170.66 170.67-170.66s170.67 76.472 170.67 170.66c0 94.198-76.472 170.67-170.67 170.67zM512 426.67c47.094 0 85.33-38.236 85.33-85.34 0-47.094-38.236-85.33-85.33-85.33s-85.33 38.236-85.33 85.33c0 47.104 38.236 85.34 85.33 85.34z" />
<glyph unicode="&#xe919;" glyph-name="gear-fill" data-tags="gear-fill" d="M306.432 554.67l23.695 69.642c11.858 34.847 45.138 58.358 82.627 58.358 50.258 0 148.234 0 198.492 0 37.489 0 70.769-23.511 82.627-58.348l23.695-69.652h75.95c29.112 0 56.31-14.264 72.458-38.001 15.452-22.712 41.329-60.733 58.061-85.33 19.507-28.672 19.507-66.007 0-94.679-15.636-22.979-39.24-57.672-54.886-80.66 15.647-22.989 39.25-57.682 54.886-80.66 19.507-28.672 19.507-66.007 0-94.679-16.732-24.596-42.609-62.618-58.061-85.33-16.148-23.736-43.346-38.001-72.458-38.001 0 0-75.95 0-75.95 0l-23.695-69.642c-11.858-34.847-45.138-58.358-82.627-58.358-50.258 0-148.234 0-198.492 0-37.489 0-70.769 23.511-82.627 58.348l-23.695 69.652h-75.95c-29.112 0-56.31 14.264-72.458 38.001-15.452 22.712-41.329 60.733-58.061 85.33-19.507 28.672-19.507 66.007 0 94.679 15.636 22.979 39.24 57.672 54.886 80.66-15.647 22.989-39.25 57.682-54.886 80.66-19.507 28.672-19.507 66.007 0 94.679 16.732 24.596 42.609 62.618 58.061 85.33 16.148 23.736 43.346 38.001 72.458 38.001 0 0 75.95 0 75.95 0zM512 426.67c-96.133 0-174.182-76.472-174.182-170.67s78.049-170.67 174.182-170.67c96.133 0 174.182 76.472 174.182 170.67s-78.049 170.67-174.182 170.67zM512 341.33c48.067 0 87.091-38.236 87.091-85.33s-39.025-85.33-87.091-85.33c-48.067 0-87.091 38.236-87.091 85.33s39.025 85.33 87.091 85.33z" />
<glyph unicode="&#xe91a;" glyph-name="gear" data-tags="gear" d="M306.432 554.67c0 0-75.95 0-75.95 0-29.112 0-56.31-14.264-72.458-38.001-15.452-22.712-41.329-60.733-58.061-85.33-19.507-28.672-19.507-66.007 0-94.679 15.636-22.979 39.24-57.672 54.886-80.66-15.647-22.989-39.25-57.682-54.886-80.66-19.507-28.672-19.507-66.007 0-94.679 16.732-24.596 42.609-62.618 58.061-85.33 16.148-23.736 43.346-38.001 72.458-38.001h75.95l23.695-69.652c11.858-34.836 45.138-58.348 82.627-58.348 50.258 0 148.234 0 198.492 0 37.489 0 70.769 23.511 82.627 58.358l23.695 69.642c0 0 75.95 0 75.95 0 29.112 0 56.31 14.264 72.458 38.001 15.452 22.712 41.329 60.733 58.061 85.33 19.507 28.672 19.507 66.007 0 94.679-15.636 22.979-39.24 57.672-54.886 80.66 15.647 22.989 39.25 57.682 54.886 80.66 19.507 28.672 19.507 66.007 0 94.679-16.732 24.596-42.609 62.618-58.061 85.33-16.148 23.736-43.346 38.001-72.458 38.001h-75.95l-23.695 69.652c-11.858 34.836-45.138 58.348-82.627 58.348-50.258 0-148.234 0-198.492 0-37.489 0-70.769-23.511-82.627-58.358l-23.695-69.642zM611.246 597.33c0 0 23.695-69.652 23.695-69.652 11.858-34.836 45.138-58.348 82.627-58.348h75.95l58.061-85.33c-15.647-22.989-39.25-57.682-54.886-80.66-19.507-28.672-19.507-66.007 0-94.679 15.636-22.979 39.24-57.672 54.886-80.66 0 0-58.061-85.33-58.061-85.33s-75.95 0-75.95 0c-37.489 0-70.769-23.511-82.627-58.358l-23.695-69.642h-198.492c0 0-23.695 69.652-23.695 69.652-11.858 34.836-45.138 58.348-82.627 58.348h-75.95l-58.061 85.33c15.647 22.989 39.25 57.682 54.886 80.66 19.507 28.672 19.507 66.007 0 94.679-15.636 22.979-39.24 57.672-54.886 80.66 0 0 58.061 85.33 58.061 85.33s75.95 0 75.95 0c37.489 0 70.769 23.511 82.627 58.358l23.695 69.642h198.492zM512 426.67c-96.133 0-174.182-76.472-174.182-170.67s78.049-170.67 174.182-170.67c96.133 0 174.182 76.472 174.182 170.67s-78.049 170.67-174.182 170.67zM512 341.33c48.067 0 87.091-38.236 87.091-85.33s-39.025-85.33-87.091-85.33c-48.067 0-87.091 38.236-87.091 85.33s39.025 85.33 87.091 85.33z" />
<glyph unicode="&#xe91b;" glyph-name="snapshot" data-tags="snapshot" d="M853.33 42.67c0 23.542 19.118 42.66 42.67 42.66s42.67-19.118 42.67-42.66c0 0 0-43.981 0-87.286 0-33.434-13.281-65.495-36.925-89.129-23.634-23.644-55.695-36.925-89.129-36.925h-87.286c-23.542 0-42.66 19.118-42.66 42.67s19.118 42.67 42.66 42.67c0 0 43.981 0 87.286 0 10.803 0 21.156 4.291 28.795 11.919 7.629 7.639 11.919 17.992 11.919 28.795v87.286zM85.33 42.67c0 23.542 19.118 42.66 42.67 42.66s42.67-19.118 42.67-42.66v-86.61c0-10.977 4.362-21.504 12.124-29.266s18.289-12.124 29.266-12.124h86.61c23.542 0 42.66-19.118 42.66-42.67s-19.118-42.67-42.66-42.67c0 0-43.52 0-86.61 0-33.608 0-65.843 13.353-89.61 37.12s-37.12 56.003-37.12 89.61v86.61zM384 469.33h-42.67c-70.687 0-128-57.303-128-128v-256c0-70.687 57.313-128 128-128h341.34c70.687 0 128 57.313 128 128 0 74.363 0 181.647 0 256 0 70.697-57.313 128-128 128h-42.67c0 70.697-57.303 128-128 128h-0.082c-70.646 0-127.918-57.262-127.918-127.908v-0.092zM298.67 85.33v256c0 23.562 19.098 42.67 42.66 42.67 0 0 341.34 0 341.34 0 23.562 0 42.66-19.108 42.66-42.67v-256c0-23.562-19.098-42.66-42.66-42.66 0 0-341.34 0-341.34 0-23.562 0-42.66 19.098-42.66 42.66zM512 341.33c-70.646 0-128-57.354-128-128s57.354-128 128-128c70.646 0 128 57.354 128 128s-57.354 128-128 128zM512 256c23.552 0 42.67-19.118 42.67-42.67 0-23.542-19.118-42.66-42.67-42.66s-42.67 19.118-42.67 42.66c0 23.552 19.118 42.67 42.67 42.67zM170.67 469.33c0-23.542-19.118-42.66-42.67-42.66s-42.67 19.118-42.67 42.66v85.555c0 70.574 57.211 127.785 127.785 127.785h85.555c23.542 0 42.66-19.118 42.66-42.67s-19.118-42.67-42.66-42.67c0 0-85.555 0-85.565 0-23.439 0-42.435-18.995-42.435-42.445v-85.555zM725.33 597.33c-23.542 0-42.66 19.118-42.66 42.67s19.118 42.67 42.66 42.67h87.398c33.403 0 65.434-13.271 89.057-36.884 23.613-23.624 36.884-55.654 36.884-89.057v-87.398c0-23.542-19.118-42.66-42.67-42.66s-42.67 19.118-42.67 42.66v87.398c0 10.772-4.27 21.094-11.889 28.713s-17.94 11.889-28.713 11.889h-87.398zM554.67 469.33h-85.34v0.092c0 23.511 19.067 42.578 42.578 42.578 0.010 0 0.092 0 0.092 0 23.562 0 42.67-19.098 42.67-42.67v0z" />
<glyph unicode="&#xe91c;" glyph-name="target" data-tags="target" d="M469.33 594.688v45.312c0 23.552 19.118 42.67 42.67 42.67s42.67-19.118 42.67-42.67v-45.312c154.296-19.282 276.736-141.711 296.018-296.018h45.312c23.552 0 42.67-19.118 42.67-42.67s-19.118-42.67-42.67-42.67h-45.312c-19.282-154.296-141.711-276.736-296.018-296.018v-45.312c0-23.552-19.118-42.67-42.67-42.67s-42.67 19.118-42.67 42.67v45.312c-154.296 19.282-276.736 141.711-296.018 296.018h-45.312c-23.552 0-42.67 19.118-42.67 42.67s19.118 42.67 42.67 42.67h45.312c19.282 154.296 141.711 276.736 296.018 296.018zM469.33 508.457c-107.131-18.012-191.775-102.656-209.787-209.787h81.787c23.552 0 42.67-19.118 42.67-42.67s-19.118-42.67-42.67-42.67h-81.787c18.012-107.131 102.656-191.775 209.787-209.787v81.787c0 23.552 19.118 42.67 42.67 42.67s42.67-19.118 42.67-42.67v-81.787c107.131 18.012 191.775 102.656 209.787 209.787h-81.787c-23.552 0-42.67 19.118-42.67 42.67s19.118 42.67 42.67 42.67h81.787c-18.012 107.131-102.656 191.775-209.787 209.787v-81.787c0-23.552-19.118-42.67-42.67-42.67s-42.67 19.118-42.67 42.67v81.787zM512 298.67c23.552 0 42.67-19.118 42.67-42.67s-19.118-42.67-42.67-42.67c-23.552 0-42.67 19.118-42.67 42.67s19.118 42.67 42.67 42.67z" />
<glyph unicode="&#xe91d;" glyph-name="thunder" data-tags="thunder" d="M520.53 281.6l-128-170.67c-9.697-12.923-11.254-30.218-4.024-44.677s21.996-23.583 38.164-23.583h85.33c0 0-76.8-102.4-76.8-102.4-14.131-18.842-10.301-45.609 8.53-59.74 18.842-14.121 45.609-10.301 59.74 8.54l128 170.66c9.697 12.933 11.254 30.228 4.024 44.687-7.229 14.449-21.996 23.583-38.164 23.583h-85.33c0 0 76.8 102.4 76.8 102.4 14.131 18.842 10.301 45.609-8.53 59.73-18.842 14.131-45.609 10.312-59.74-8.53zM216.156 336.64c-74.998-17.951-130.826-85.494-130.826-165.97 0-94.198 76.472-170.67 170.67-170.67 23.552 0 42.67 19.118 42.67 42.67 0 23.542-19.118 42.66-42.67 42.66-47.094 0-85.33 38.236-85.33 85.34 0 47.094 38.236 85.33 85.33 85.33 28.733 0.123 42.67 15.145 42.67 43.868 0.645 93.645 76.872 169.462 170.66 169.462 86.753 0 158.495-64.84 169.267-148.675 1.751-13.66 9.994-25.631 22.129-32.143 12.124-6.523 26.655-6.779 39.014-0.707 14.162 6.963 30.095 10.865 46.93 10.865 58.87 0 106.66-47.8 106.66-106.67s-47.79-106.67-106.66-106.67c-23.552 0-42.67-19.118-42.67-42.66 0-23.552 19.118-42.67 42.67-42.67 105.964 0 192 86.036 192 192s-86.036 192-192 192c-11.899 0-23.542-1.085-34.847-3.164-34.263 101.028-129.935 173.834-242.493 173.834-128.379 0-234.813-94.71-253.174-218.030z" />
<glyph unicode="&#xe91e;" glyph-name="user-fill" data-tags="user-fill" d="M170.67-128c0-23.562 19.098-42.67 42.66-42.67h597.34c23.562 0 42.66 19.108 42.66 42.67 0 0-3.011 384-341.33 384s-341.33-384-341.33-384zM512 682.67c-94.198 0-170.67-76.472-170.67-170.67s76.472-170.67 170.67-170.67c94.198 0 170.67 76.472 170.67 170.67s-76.472 170.67-170.67 170.67z" />
<glyph unicode="&#xe91f;" glyph-name="user" data-tags="user" d="M170.67-128c0-23.562 19.098-42.67 42.66-42.67h597.34c23.562 0 42.66 19.108 42.66 42.67 0 0-3.011 384-341.33 384s-341.33-384-341.33-384zM259.052-85.34c10.332 82.534 55.532 256.010 252.948 256.010s242.616-173.476 252.948-256.010h-505.897zM512 682.67c-94.198 0-170.67-76.472-170.67-170.67s76.472-170.67 170.67-170.67c94.198 0 170.67 76.472 170.67 170.67s-76.472 170.67-170.67 170.67zM512 597.33c47.094 0 85.33-38.236 85.33-85.33s-38.236-85.33-85.33-85.33c-47.094 0-85.33 38.236-85.33 85.33s38.236 85.33 85.33 85.33z" />
<glyph unicode="&#xe920;" glyph-name="users-fill" data-tags="users-fill" d="M85.33-128c0-23.562 19.108-42.67 42.67-42.67h597.33c23.572 0 42.67 19.108 42.67 42.67 0 0-3.011 384-341.33 384-338.33 0-341.34-384-341.34-384zM706.253 175.176c58.235-29.123 92.303-82.289 113.265-134.697 33.7-84.255 33.812-168.479 33.812-168.479 0-23.552 19.118-42.67 42.67-42.67s42.67 19.118 42.67 42.67c0 0 0.113 100.096-39.916 200.161-28.191 70.472-76.042 140.186-154.337 179.333-21.064 10.537-46.715 1.987-57.242-19.077-10.537-21.064-1.987-46.715 19.077-57.242zM426.67 682.67c94.188 0 170.66-76.472 170.66-170.67s-76.472-170.67-170.66-170.67c-94.198 0-170.67 76.472-170.67 170.67s76.472 170.67 170.67 170.67zM682.67 597.33c47.094 0 85.33-38.236 85.33-85.33s-38.236-85.33-85.33-85.33c-23.552 0-42.67-19.118-42.67-42.67s19.118-42.67 42.67-42.67c94.188 0 170.66 76.472 170.66 170.67s-76.472 170.67-170.66 170.67c-23.552 0-42.67-19.118-42.67-42.67s19.118-42.67 42.67-42.67z" />
<glyph unicode="&#xe921;" glyph-name="users" data-tags="users" d="M85.33-128c0-23.562 19.108-42.67 42.67-42.67h597.33c23.572 0 42.67 19.108 42.67 42.67 0 0-3.011 384-341.33 384-338.33 0-341.34-384-341.34-384zM706.253 175.176c58.235-29.123 92.303-82.289 113.265-134.697 33.7-84.255 33.812-168.479 33.812-168.479 0-23.552 19.118-42.67 42.67-42.67s42.67 19.118 42.67 42.67c0 0 0.113 100.096-39.916 200.161-28.191 70.472-76.042 140.186-154.337 179.333-21.064 10.537-46.715 1.987-57.242-19.077-10.537-21.064-1.987-46.715 19.077-57.242zM173.722-85.34c10.332 82.534 55.532 256.010 252.948 256.010 197.407 0 242.606-173.476 252.938-256.010h-505.887zM426.67 682.67c-94.198 0-170.67-76.472-170.67-170.67s76.472-170.67 170.67-170.67c94.188 0 170.66 76.472 170.66 170.67s-76.472 170.67-170.66 170.67zM682.67 597.33c47.094 0 85.33-38.236 85.33-85.33s-38.236-85.33-85.33-85.33c-23.552 0-42.67-19.118-42.67-42.67s19.118-42.67 42.67-42.67c94.188 0 170.66 76.472 170.66 170.67s-76.472 170.67-170.66 170.67c-23.552 0-42.67-19.118-42.67-42.67s19.118-42.67 42.67-42.67zM426.67 597.33c47.094 0 85.33-38.236 85.33-85.33s-38.236-85.33-85.33-85.33c-47.104 0-85.34 38.236-85.34 85.33s38.236 85.33 85.34 85.33z" />
<glyph unicode="&#xe922;" glyph-name="chat_bubble-fill" data-tags="chat_bubble-fill" d="M85.33 554.783v-682.783c0-15.37 8.274-29.553 21.647-37.13 13.373-7.567 29.798-7.363 42.977 0.543l203.192 121.917c0 0 457.523 0 457.523 0 70.687 0 128 57.313 128 128 0 122.511 0 346.941 0 469.453 0 33.946-13.486 66.499-37.499 90.511-24.003 24.003-56.556 37.489-90.501 37.489-147.763 0-449.577 0-597.34 0-70.687 0-128-57.313-128-128z" />
<glyph unicode="&#xe923;" glyph-name="chat_bubble" data-tags="chat_bubble" d="M85.33 554.783v-682.783c0-15.37 8.274-29.553 21.647-37.13 13.373-7.567 29.798-7.363 42.977 0.543l203.192 121.917c0 0 457.523 0 457.523 0 70.687 0 128 57.313 128 128 0 122.511 0 346.941 0 469.453 0 33.946-13.486 66.499-37.499 90.511-24.003 24.003-56.556 37.489-90.501 37.489-147.763 0-449.577 0-597.34 0-70.687 0-128-57.313-128-128zM170.67 554.783c0 23.562 19.098 42.66 42.66 42.66h597.34c11.315 0 22.17-4.495 30.167-12.493s12.493-18.852 12.493-30.167c0 0 0-469.453 0-469.453 0-23.562-19.098-42.66-42.66-42.66-155.556 0-469.34 0-469.34 0-7.731 0-15.319-2.109-21.944-6.083l-148.716-89.231v607.427z" />
<glyph unicode="&#xe924;" glyph-name="close" data-tags="close" d="M798.17 481.83c16.661 16.663 16.661 43.677 0 60.34s-43.678 16.662-60.339 0l-225.83-225.831-225.83 225.831c-16.663 16.662-43.677 16.662-60.34 0s-16.662-43.677 0-60.34l225.831-225.83-225.831-225.83c-16.662-16.661-16.662-43.678 0-60.339s43.677-16.661 60.34 0l225.83 225.83 225.83-225.83c16.661-16.661 43.678-16.661 60.339 0s16.661 43.678 0 60.339l-225.83 225.83 225.83 225.83z" />
<glyph unicode="&#xe925;" glyph-name="trash-fill" data-tags="trash-fill" d="M298.67 512v42.67c0 33.946 13.486 66.499 37.489 90.501 24.003 24.013 56.556 37.499 90.511 37.499h170.66c33.956 0 66.509-13.486 90.511-37.499 24.003-24.003 37.489-56.556 37.489-90.501 0-21.156 0-38.789 0-42.107v-0.563h170.67c23.552 0 42.67-19.118 42.67-42.67 0-23.542-19.118-42.66-42.67-42.66h-45.609l-34.171-478.454c-4.782-66.99-60.518-118.886-127.672-118.886-96.123 0-256.973 0-353.096 0-67.154 0-122.89 51.896-127.672 118.886l-34.171 478.454h-45.609c-23.552 0-42.67 19.118-42.67 42.66 0 23.552 19.118 42.67 42.67 42.67h170.67zM384 298.67v-213.34c0-23.542 19.118-42.66 42.67-42.66 23.542 0 42.66 19.118 42.66 42.66v213.34c0 23.542-19.118 42.66-42.66 42.66-23.552 0-42.67-19.118-42.67-42.66zM554.67 298.67v-213.34c0-23.542 19.118-42.66 42.66-42.66 23.552 0 42.67 19.118 42.67 42.66v213.34c0 23.542-19.118 42.66-42.67 42.66-23.542 0-42.66-19.118-42.66-42.66zM640 512v42.67c0 11.315-4.495 22.17-12.493 30.167-8.008 7.997-18.852 12.493-30.177 12.493 0 0-170.66 0-170.67 0-11.315 0-22.159-4.495-30.167-12.493-7.997-7.997-12.493-18.852-12.493-30.167v-42.107c0-0.195 0-0.379 0-0.563h256z" />
<glyph unicode="&#xe926;" glyph-name="trash" data-tags="trash" d="M725.33 512v42.67c0 33.946-13.486 66.499-37.489 90.501-24.003 24.013-56.556 37.499-90.511 37.499h-170.66c-33.956 0-66.509-13.486-90.511-37.499-24.003-24.003-37.489-56.556-37.489-90.501v-42.67h-170.67c-23.552 0-42.67-19.118-42.67-42.67 0-23.542 19.118-42.66 42.67-42.66h45.609l34.171-478.454c4.782-66.99 60.518-118.886 127.672-118.886 96.123 0 256.973 0 353.096 0 67.154 0 122.89 51.896 127.672 118.886l34.171 478.454h45.609c23.552 0 42.67 19.118 42.67 42.66 0 23.552-19.118 42.67-42.67 42.67h-170.67zM292.895-45.711l-33.741 472.381c0 0 505.692 0 505.692 0s-33.741-472.381-33.741-472.381c-1.597-22.323-20.173-39.619-42.557-39.619h-353.096c-22.385 0-40.96 17.295-42.557 39.619zM384 298.67c0 23.542 19.118 42.66 42.67 42.66 23.542 0 42.66-19.118 42.66-42.66v-213.34c0-23.542-19.118-42.66-42.66-42.66-23.552 0-42.67 19.118-42.67 42.66v213.34zM554.67 298.67c0 23.542 19.118 42.66 42.66 42.66 23.552 0 42.67-19.118 42.67-42.66v-213.34c0-23.542-19.118-42.66-42.67-42.66-23.542 0-42.66 19.118-42.66 42.66v213.34zM640 512h-256v42.67c0 11.315 4.495 22.17 12.493 30.167 8.008 7.997 18.852 12.493 30.167 12.493 0.010 0 170.67 0 170.67 0 11.325 0 22.17-4.495 30.177-12.493 7.997-7.997 12.493-18.852 12.493-30.167v-42.67z" />
<glyph unicode="&#xe927;" glyph-name="document_edit-fill" data-tags="document_edit-fill" d="M798.167 243.507c-16.66 16.66-43.674 16.66-60.334 0l-170.67-170.67c-5.468-5.468-9.349-12.319-11.223-19.825l-42.67-170.66c-3.635-14.541 0.625-29.921 11.223-40.52s25.979-14.858 40.52-11.223l170.67 42.66c7.506 1.884 14.356 5.755 19.825 11.223l170.66 170.67c16.66 16.66 16.66 43.674 0 60.344l-128 128zM469.33-170.67h-257.454c-69.888 0-126.546 56.658-126.546 126.556v600.33c0 69.837 56.617 126.454 126.454 126.454h427.766c70.943 0 128.451-57.508 128.451-128.451v-255.549c-21.842 0-43.674-8.335-60.344-24.996l-170.66-170.67c-10.936-10.936-18.698-24.637-22.446-39.639l-42.67-170.67c-5.437-21.75-2.55-63.365-2.55-63.365zM768 152.996l67.656-67.666c0 0-132.137-132.137-132.137-132.137s-90.214-22.548-90.214-22.548c0 0 22.559 90.204 22.559 90.204l132.137 132.147zM298.67-42.67h128c23.542 0 42.66 19.118 42.66 42.67s-19.118 42.67-42.66 42.67h-128c-23.552 0-42.67-19.118-42.67-42.67s19.118-42.67 42.67-42.67zM298.67 128h213.33c23.552 0 42.67 19.118 42.67 42.67 0 23.542-19.118 42.66-42.67 42.66h-213.33c-23.552 0-42.67-19.118-42.67-42.66 0-23.552 19.118-42.67 42.67-42.67zM298.67 298.67h256c23.542 0 42.66 19.118 42.66 42.66 0 23.552-19.118 42.67-42.66 42.67h-256c-23.552 0-42.67-19.118-42.67-42.67 0-23.542 19.118-42.66 42.67-42.66zM298.67 469.33h256c23.542 0 42.66 19.118 42.66 42.67s-19.118 42.67-42.66 42.67h-256c-23.552 0-42.67-19.118-42.67-42.67s19.118-42.67 42.67-42.67z" />
<glyph unicode="&#xe928;" glyph-name="document_edit" data-tags="document_edit" d="M798.167 243.507c-16.66 16.66-43.674 16.66-60.334 0l-170.67-170.67c-5.468-5.468-9.349-12.319-11.223-19.825l-42.67-170.66c-3.635-14.541 0.625-29.921 11.223-40.52s25.979-14.858 40.52-11.223l170.67 42.66c7.506 1.884 14.356 5.755 19.825 11.223l170.66 170.67c16.66 16.66 16.66 43.674 0 60.344l-128 128zM768 384v169.892c0 71.117-57.651 128.778-128.778 128.778h-426.742c-33.72 0-66.068-13.404-89.907-37.243-23.849-23.849-37.243-56.187-37.243-89.907 0-147.855 0-451.83 0-599.419 0-70.011 56.76-126.771 126.771-126.771h171.899c23.552 0 42.67 19.118 42.67 42.67s-19.118 42.67-42.67 42.67h-171.899c-22.886 0-41.431 18.545-41.431 41.421v599.429c0 11.090 4.403 21.729 12.237 29.563 7.844 7.844 18.483 12.247 29.563 12.247 0.010 0 426.752 0 426.752 0 23.992 0 43.448-19.446 43.448-43.438 0-74.353 0-169.892 0-169.892 0-23.552 19.118-42.67 42.66-42.67 23.552 0 42.67 19.118 42.67 42.67zM768 152.996l67.656-67.666c0 0-132.137-132.137-132.137-132.137s-90.214-22.548-90.214-22.548c0 0 22.559 90.204 22.559 90.204l132.137 132.147zM298.67-42.67h128c23.542 0 42.66 19.118 42.66 42.67s-19.118 42.67-42.66 42.67h-128c-23.552 0-42.67-19.118-42.67-42.67s19.118-42.67 42.67-42.67zM298.67 128h213.33c23.552 0 42.67 19.118 42.67 42.67 0 23.542-19.118 42.66-42.67 42.66h-213.33c-23.552 0-42.67-19.118-42.67-42.66 0-23.552 19.118-42.67 42.67-42.67zM298.67 298.67h256c23.542 0 42.66 19.118 42.66 42.66 0 23.552-19.118 42.67-42.66 42.67h-256c-23.552 0-42.67-19.118-42.67-42.67 0-23.542 19.118-42.66 42.67-42.66zM298.67 469.33h256c23.542 0 42.66 19.118 42.66 42.67s-19.118 42.67-42.66 42.67h-256c-23.552 0-42.67-19.118-42.67-42.67s19.118-42.67 42.67-42.67z" />
<glyph unicode="&#xe929;" glyph-name="pencil-fill" data-tags="pencil-fill" d="M88.381-112.159c-6.339-15.841-2.621-33.946 9.452-46.008 12.063-12.073 30.167-15.79 46.008-9.452l213.34 85.34c5.366 2.14 10.24 5.356 14.326 9.441l554.66 554.67c16.66 16.66 16.66 43.674 0 60.334l-128 128c-16.66 16.66-43.674 16.66-60.334 0l-554.67-554.66c-4.086-4.086-7.301-8.96-9.441-14.326l-85.34-213.34zM896-85.33h-426.67c-23.542 0-42.66-19.118-42.66-42.67s19.118-42.67 42.66-42.67h426.67c23.552 0 42.67 19.118 42.67 42.67s-19.118 42.67-42.67 42.67z" />
<glyph unicode="&#xe92a;" glyph-name="pencil" data-tags="pencil" d="M88.381-112.159c-6.339-15.841-2.621-33.946 9.452-46.008 12.063-12.073 30.167-15.79 46.008-9.452l213.34 85.34c5.366 2.14 10.24 5.356 14.326 9.441l554.66 554.67c16.66 16.66 16.66 43.674 0 60.334l-128 128c-16.66 16.66-43.674 16.66-60.334 0l-554.67-554.66c-4.086-4.086-7.301-8.96-9.441-14.326l-85.34-213.34zM896-85.33h-426.67c-23.542 0-42.66-19.118-42.66-42.67s19.118-42.67 42.66-42.67h426.67c23.552 0 42.67 19.118 42.67 42.67s-19.118 42.67-42.67 42.67zM204.585-51.415l45.107 112.773c0 0 518.308 518.298 518.308 518.298s67.656-67.656 67.656-67.656c0 0-518.298-518.308-518.298-518.308l-112.773-45.107z" />
<glyph unicode="&#xe92b;" glyph-name="logout-fill" data-tags="logout-fill" d="M682.67 170.67h-298.67c-47.094 0-85.33 38.236-85.33 85.33s38.236 85.33 85.33 85.33h298.67v213.34c0 70.687-57.313 128-128 128h-341.34c-70.687 0-128-57.313-128-128 0-147.763 0-449.577 0-597.34 0-70.687 57.313-128 128-128h341.34c70.687 0 128 57.313 128 128v213.34zM810.67 298.67h-426.67c-23.552 0-42.67-19.118-42.67-42.67s19.118-42.67 42.67-42.67h426.67l-76.8-102.4c-14.131-18.831-10.312-45.599 8.53-59.73s45.609-10.301 59.73 8.53l128 170.67 3.543 5.571c3.123 5.847 4.915 12.503 4.987 19.569v0.922c-0.072 7.066-1.864 13.722-4.987 19.569l-3.543 5.571-128 170.67c-14.121 18.831-40.888 22.661-59.73 8.53s-22.661-40.899-8.53-59.73l76.8-102.4z" />
<glyph unicode="&#xe92c;" glyph-name="logout" data-tags="logout" d="M682.67-42.67v128c0 23.552-19.118 42.67-42.67 42.67s-42.67-19.118-42.67-42.67l0.010-128.502c-0.573-23.613-19.456-42.158-42.67-42.158 0 0-341.34 0-341.34 0-23.562 0-42.66 19.098-42.66 42.66v597.34c0 23.562 19.098 42.66 42.66 42.66 0 0 341.34 0 341.34 0 23.562 0 42.66-19.098 42.66-42.66v-85.34c0-23.542 19.118-42.66 42.67-42.66s42.67 19.118 42.67 42.66v85.34c0 70.687-57.313 128-128 128h-341.34c-70.687 0-128-57.313-128-128 0-147.763 0-449.577 0-597.34 0-70.687 57.313-128 128-128h341.34c70.687 0 128 57.313 128 128zM682.67-42.67v0 0zM810.67 298.67h-426.67c-23.552 0-42.67-19.118-42.67-42.67s19.118-42.67 42.67-42.67h426.67l-76.8-102.4c-14.131-18.831-10.312-45.599 8.53-59.73s45.609-10.301 59.73 8.53l128 170.67 3.543 5.571c3.123 5.847 4.915 12.503 4.987 19.569v0.922c-0.072 7.066-1.864 13.722-4.987 19.569l-3.543 5.571-128 170.67c-14.121 18.831-40.888 22.661-59.73 8.53s-22.661-40.899-8.53-59.73l76.8-102.4z" />
<glyph unicode="&#xe92d;" glyph-name="export" data-tags="export" d="M298.667 597.333h213.333v-170.667c0-47.128 38.204-85.333 85.333-85.333h170.667c16.555 0 31.616 9.577 38.639 24.569s4.736 32.694-5.862 45.412l-213.333 256c-8.107 9.728-20.113 15.352-32.777 15.352h-256c-70.692 0-128-57.308-128-128v-597.333c0-70.694 57.308-128 128-128h341.333c23.565 0 42.667 19.102 42.667 42.667s-19.102 42.667-42.667 42.667h-341.333c-23.564 0-42.667 19.102-42.667 42.667v597.333c0 23.564 19.103 42.667 42.667 42.667zM597.333 522.153l79.573-95.486h-79.573v95.486zM737.83 183.164c-16.661 16.661-16.661 43.678 0 60.339s43.678 16.661 60.339 0l128-128c16.661-16.661 16.661-43.678 0-60.339l-128-128c-16.661-16.661-43.678-16.661-60.339 0s-16.661 43.678 0 60.339l55.164 55.164h-280.994c-23.565 0-42.667 19.102-42.667 42.667s19.102 42.667 42.667 42.667h280.994l-55.164 55.164z" />
<glyph unicode="&#xe92e;" glyph-name="sort-asc" data-tags="sort-asc" d="M128 469.33h768c23.552 0 42.67 19.118 42.67 42.67s-19.118 42.67-42.67 42.67h-768c-23.552 0-42.67-19.118-42.67-42.67s19.118-42.67 42.67-42.67zM256 213.33h512c23.552 0 42.67 19.118 42.67 42.67s-19.118 42.67-42.67 42.67h-512c-23.552 0-42.67-19.118-42.67-42.67s19.118-42.67 42.67-42.67zM640 42.67h-256c-23.552 0-42.67-19.118-42.67-42.67s19.118-42.67 42.67-42.67h256c23.552 0 42.67 19.118 42.67 42.67s-19.118 42.67-42.67 42.67z" />
<glyph unicode="&#xe92f;" glyph-name="sort-desc" data-tags="sort-desc" d="M896 42.67h-768c-23.552 0-42.67-19.118-42.67-42.67s19.118-42.67 42.67-42.67h768c23.552 0 42.67 19.118 42.67 42.67s-19.118 42.67-42.67 42.67zM768 298.67h-512c-23.552 0-42.67-19.118-42.67-42.67s19.118-42.67 42.67-42.67h512c23.552 0 42.67 19.118 42.67 42.67s-19.118 42.67-42.67 42.67zM384 469.33h256c23.552 0 42.67 19.118 42.67 42.67s-19.118 42.67-42.67 42.67h-256c-23.552 0-42.67-19.118-42.67-42.67s19.118-42.67 42.67-42.67z" />
<glyph unicode="&#xe930;" glyph-name="favorite-fill" data-tags="favorite-fill" d="M511.99 606.034c-21.309 15.227-39.066 30.198-57.651 42.312-31.437 20.511-64.778 34.437-113.009 34.437-77.466 0-141.609-26.952-186.819-78.633-42.926-49.070-69.243-122.102-69.181-220.18 0.133-201.677 175.913-391.516 298.947-486.083 37.796-29.051 70.595-49.254 91.587-58.911 16.005-7.352 28.652-9.646 36.137-9.646s20.132 2.294 36.137 9.646c21.002 9.656 53.811 29.86 91.617 58.911 123.085 94.566 298.916 284.416 298.916 486.113 0 98.058-26.317 171.080-69.222 220.14-45.189 51.692-109.302 78.643-186.778 78.643-48.23 0-81.572-13.926-113.009-34.437-18.586-12.114-36.342-27.085-57.661-42.312h-0.010z" />
<glyph unicode="&#xe931;" glyph-name="favorite" data-tags="favorite" d="M511.99 606.034c-21.309 15.227-39.066 30.198-57.651 42.312-31.437 20.511-64.778 34.437-113.009 34.437-77.466 0-141.609-26.952-186.819-78.633-42.926-49.070-69.243-122.102-69.181-220.18 0.133-201.677 175.913-391.516 298.947-486.083 37.796-29.051 70.595-49.254 91.587-58.911 16.005-7.352 28.652-9.646 36.137-9.646s20.132 2.294 36.137 9.646c21.002 9.656 53.811 29.86 91.617 58.911 123.085 94.566 298.916 284.416 298.916 486.113 0 98.058-26.317 171.080-69.222 220.14-45.189 51.692-109.302 78.643-186.778 78.643-48.23 0-81.572-13.926-113.009-34.437-18.586-12.114-36.342-27.085-57.661-42.312h-0.010zM512-83.005c-12.739 6.932-46.152 25.825-75.725 48.548-106.865 82.135-265.492 243.313-265.605 418.488-0.051 72.602 16.292 127.611 48.067 163.932 29.491 33.71 72.069 49.48 122.593 49.48 35.052 0 56.771-13.107 79.473-29.645 20.582-15.002 41.636-32.471 68.588-49.316 13.834-8.643 31.386-8.643 45.22 0 26.952 16.845 48.005 34.314 68.588 49.316 22.702 16.538 44.421 29.645 79.473 29.645 50.524 0 93.071-15.77 122.542-49.469 31.775-36.332 48.118-91.361 48.118-163.973 0-175.165-158.669-336.323-265.564-418.447-29.583-22.733-63.017-41.626-75.766-48.558z" />
<glyph unicode="&#xe932;" glyph-name="cluster" data-tags="cluster" d="M176.011 588.17c-65.594-65.594-65.594-171.943 0-237.537 17.418-17.419 38.455-30.791 61.618-39.175l129.33-46.797c71.471-25.86 127.757-82.146 153.621-153.621l46.797-129.327c8.38-23.164 21.756-44.203 39.172-61.619 65.596-65.596 171.942-65.596 237.538 0l3.823 3.823c65.591 65.591 65.591 171.942 0 237.534-17.421 17.421-38.455 30.793-61.619 39.177l-129.331 46.797c-71.471 25.86-127.757 82.146-153.617 153.62l-46.801 129.33c-8.38 23.163-21.756 44.2-39.172 61.618-65.594 65.594-171.943 65.594-237.537 0l-3.822-3.822zM145.841 320.461c-82.256 82.259-82.256 215.623 0 297.879l3.822 3.822c82.256 82.256 215.621 82.256 297.876 0 21.845-21.843 38.613-48.223 49.126-77.271l46.797-129.33c21.551-59.561 68.454-106.467 128.017-128.018l129.331-46.797c29.047-10.509 55.424-27.281 77.269-49.126 82.257-82.253 82.257-215.62 0-297.873l-3.823-3.823c-82.257-82.257-215.62-82.257-297.877 0-21.841 21.841-38.613 48.222-49.122 77.269l-46.801 129.331c-21.551 59.558-68.454 106.466-128.015 128.017l-129.33 46.797c-29.047 10.509-55.427 27.281-77.271 49.122zM426.667 469.334c0 70.692-57.306 128-127.999 128s-128-57.308-128-128c0-70.693 57.307-128 128-128s127.999 57.307 127.999 128zM853.333 42.667c0 70.694-57.306 128-128 128-70.69 0-128-57.306-128-128 0-70.69 57.31-128 128-128 70.694 0 128 57.31 128 128zM768 469.334c0 23.564-19.102 42.667-42.667 42.667s-42.667-19.103-42.667-42.667c0-23.564 19.102-42.667 42.667-42.667s42.667 19.102 42.667 42.667zM810.667 469.334c0-47.128-38.204-85.333-85.333-85.333-47.125 0-85.333 38.205-85.333 85.333s38.208 85.333 85.333 85.333c47.13 0 85.333-38.205 85.333-85.333zM298.668 0c-23.564 0-42.667 19.102-42.667 42.667s19.102 42.667 42.667 42.667c23.564 0 42.667-19.102 42.667-42.667s-19.103-42.667-42.667-42.667zM298.668-42.667c47.128 0 85.333 38.204 85.333 85.333s-38.205 85.333-85.333 85.333c-47.128 0-85.333-38.204-85.333-85.333s38.205-85.333 85.333-85.333z" />
<glyph unicode="&#xe933;" glyph-name="layers-fill" data-tags="layers-fill" d="M114.504 44.851l384-128c8.765-2.918 18.227-2.918 26.993 0l384 128c22.333 7.455 34.427 31.631 26.982 53.975s-31.631 34.427-53.975 26.982l-370.504-123.505c0 0-370.504 123.505-370.504 123.505-22.344 7.444-46.531-4.639-53.975-26.982s4.649-46.52 26.982-53.975zM114.504 215.521l384-128c8.765-2.918 18.227-2.918 26.993 0l384 128c22.333 7.444 34.427 31.631 26.982 53.975-7.444 22.333-31.631 34.427-53.975 26.982l-370.504-123.505c0 0-370.504 123.505-370.504 123.505-22.344 7.444-46.531-4.649-53.975-26.982-7.444-22.344 4.649-46.531 26.982-53.975zM525.496 595.149c-8.765 2.918-18.227 2.918-26.993 0l-384-128c-17.418-5.816-29.174-22.118-29.174-40.479 0-18.371 11.756-34.673 29.174-40.479l384-128c8.765-2.918 18.227-2.918 26.993 0l384 128c17.418 5.806 29.174 22.108 29.174 40.479 0 18.36-11.756 34.662-29.174 40.479l-384 128z" />
<glyph unicode="&#xe934;" glyph-name="layers" data-tags="layers" d="M114.504 44.851l384-128c8.765-2.918 18.227-2.918 26.993 0l384 128c22.333 7.455 34.427 31.631 26.982 53.975s-31.631 34.427-53.975 26.982l-370.504-123.505c0 0-370.504 123.505-370.504 123.505-22.344 7.444-46.531-4.639-53.975-26.982s4.649-46.52 26.982-53.975zM114.504 215.521l384-128c8.765-2.918 18.227-2.918 26.993 0l384 128c22.333 7.444 34.427 31.631 26.982 53.975-7.444 22.333-31.631 34.427-53.975 26.982l-370.504-123.505c0 0-370.504 123.505-370.504 123.505-22.344 7.444-46.531-4.649-53.975-26.982-7.444-22.344 4.649-46.531 26.982-53.975zM525.496 595.149c-8.765 2.918-18.227 2.918-26.993 0l-384-128c-17.418-5.816-29.174-22.118-29.174-40.479 0-18.371 11.756-34.673 29.174-40.479l384-128c8.765-2.918 18.227-2.918 26.993 0l384 128c17.418 5.806 29.174 22.108 29.174 40.479 0 18.36-11.756 34.662-29.174 40.479l-384 128zM512 509.696l249.078-83.026c0 0-249.078-83.026-249.078-83.026s-249.078 83.026-249.078 83.026l249.078 83.026z" />
<glyph unicode="&#xe935;" glyph-name="new_tab" data-tags="new_tab" d="M384 682.67h-169.544c-34.243 0-67.082-13.609-91.3-37.827s-37.827-57.057-37.827-91.31c0-148.091 0-448.553 0-596.009 0-33.997 13.507-66.601 37.55-90.644s56.648-37.55 90.644-37.55c147.835 0 449.444 0 597.135 0 70.697 0 128.010 57.313 128.010 128.010v170.66c0 23.552-19.118 42.67-42.67 42.67s-42.67-19.118-42.67-42.67v-170.66c0-23.572-19.098-42.67-42.67-42.67 0 0-597.135 0-597.135 0-11.366 0-22.262 4.516-30.3 12.554s-12.554 18.934-12.554 30.3v596.009c0 11.622 4.608 22.764 12.82 30.976s19.354 12.82 30.966 12.82h169.544c23.552 0 42.67 19.118 42.67 42.67s-19.118 42.67-42.67 42.67zM896 682.67c0 0-256 0-256 0-23.552 0-42.67-19.118-42.67-42.67s19.118-42.67 42.67-42.67h152.996l-311.163-311.163c-16.65-16.65-16.65-43.684 0-60.334s43.684-16.65 60.334 0l311.163 311.163v-152.996c0-23.552 19.118-42.67 42.67-42.67s42.67 19.118 42.67 42.67v256l-0.020 1.096c-0.133 5.366-1.26 10.476-3.195 15.176l-0.051 0.123c-2.089 5.007-5.161 9.708-9.236 13.773-4.065 4.076-8.765 7.148-13.773 9.236l-1.239 0.492-1.229 0.44-1.249 0.41-1.26 0.369-1.27 0.338-1.29 0.297-1.311 0.256-1.321 0.205-1.331 0.174-1.341 0.133-1.362 0.092-1.362 0.051-0.829 0.010z" />
<glyph unicode="&#xe936;" glyph-name="a-fill" data-tags="a-fill" d="M938.67 554.67v-597.34c0-33.946-13.486-66.499-37.489-90.511-24.013-24.003-56.566-37.489-90.511-37.489-147.763 0-449.577 0-597.34 0-33.946 0-66.499 13.486-90.511 37.489-24.003 24.013-37.489 56.566-37.489 90.511 0 147.763 0 449.577 0 597.34 0 33.946 13.486 66.499 37.489 90.511 24.013 24.003 56.566 37.489 90.511 37.489 147.763 0 449.577 0 597.34 0 33.946 0 66.499-13.486 90.511-37.489 24.003-24.013 37.489-56.566 37.489-90.511zM473.836 488.417l-213.33-426.67c-10.537-21.064-1.987-46.715 19.077-57.242 21.064-10.537 46.715-1.987 57.242 19.077l49.388 98.765h251.576l49.388-98.765c10.527-21.064 36.178-29.614 57.242-19.077 21.064 10.527 29.614 36.178 19.077 57.242l-213.33 426.67c-7.229 14.449-22.006 23.583-38.164 23.583s-30.935-9.134-38.164-23.583zM428.872 207.677h166.257l-83.128 166.246-83.128-166.246z" />
<glyph unicode="&#xe937;" glyph-name="a" data-tags="a" d="M938.67 554.67c0 33.946-13.486 66.499-37.489 90.511-24.013 24.003-56.566 37.489-90.511 37.489-147.763 0-449.577 0-597.34 0-33.946 0-66.499-13.486-90.511-37.489-24.003-24.013-37.489-56.566-37.489-90.511 0-147.763 0-449.577 0-597.34 0-33.946 13.486-66.499 37.489-90.511 24.013-24.003 56.566-37.489 90.511-37.489 147.763 0 449.577 0 597.34 0 33.946 0 66.499 13.486 90.511 37.489 24.003 24.013 37.489 56.566 37.489 90.511v597.34zM853.33 554.67v-597.34c0-11.315-4.495-22.17-12.493-30.167s-18.852-12.493-30.167-12.493h-597.34c-11.315 0-22.17 4.495-30.167 12.493s-12.493 18.852-12.493 30.167v597.34c0 11.315 4.495 22.17 12.493 30.167s18.852 12.493 30.167 12.493h597.34c11.315 0 22.17-4.495 30.167-12.493s12.493-18.852 12.493-30.167zM473.836 488.417c7.229 14.449 22.006 23.583 38.164 23.583s30.935-9.134 38.164-23.583l213.33-426.67c10.537-21.064 1.987-46.715-19.077-57.242-21.064-10.537-46.715-1.987-57.242 19.077l-49.388 98.765h-251.576l-49.388-98.765c-10.527-21.064-36.178-29.614-57.242-19.077-21.064 10.527-29.614 36.178-19.077 57.242l213.33 426.67zM428.872 207.677h166.257l-83.128 166.246-83.128-166.246z" />
<glyph unicode="&#xe938;" glyph-name="palette" data-tags="palette" d="M213.33-170.67h598.385c70.113 0 126.956 56.842 126.956 126.956 0 28.078 0 59.351 0 87.429 0 64.819-48.568 118.282-111.288 125.993l39.67 39.67c23.685 23.685 36.987 55.798 36.987 89.293 0 33.485-13.302 65.608-36.987 89.283-41.083 41.083-95.652 95.652-136.919 136.919-49.777 49.777-130.488 49.777-180.265 0l-37.868-37.868v67.666c0 33.946-13.486 66.499-37.489 90.501-24.003 24.013-56.566 37.499-90.511 37.499h-170.67c-33.946 0-66.499-13.486-90.511-37.499-24.003-24.003-37.489-56.556-37.489-90.501 0-147.763 0-449.577 0-597.34 0-33.946 13.486-66.499 37.489-90.501 24.013-24.013 56.566-37.499 90.511-37.499zM426.67 554.67v-640c0 0-213.34 0-213.34 0-11.315 0-22.17 4.495-30.167 12.493s-12.493 18.852-12.493 30.167v597.34c0 11.315 4.495 22.17 12.493 30.167s18.852 12.493 30.167 12.493h170.67c11.315 0 22.17-4.495 30.167-12.493 8.008-7.997 12.503-18.852 12.503-30.167zM743.004 85.33h68.71c22.989 0 41.615-18.627 41.615-41.615 0 0 0-87.429 0-87.429 0-22.989-18.627-41.615-41.615-41.615h-239.37l170.66 170.66zM298.67 42.67c23.542 0 42.66-19.118 42.66-42.67s-19.118-42.67-42.66-42.67c-23.552 0-42.67 19.118-42.67 42.67s19.118 42.67 42.67 42.67zM512-24.996v391.322c0 0 98.202 98.202 98.202 98.202 16.456 16.456 43.141 16.456 59.597 0l136.919-136.909c7.67-7.68 11.981-18.094 11.981-28.948 0-10.865-4.311-21.279-11.981-28.948l-294.717-294.717z" />
<glyph unicode="&#xe939;" glyph-name="plus_circles-fill" data-tags="plus_circles-fill" d="M512 682.67c235.479 0 426.67-191.191 426.67-426.67s-191.191-426.67-426.67-426.67c-235.479 0-426.67 191.191-426.67 426.67s191.191 426.67 426.67 426.67zM469.33 298.67h-170.66c-23.552 0-42.67-19.118-42.67-42.67s19.118-42.67 42.67-42.67h170.66v-170.66c0-23.552 19.118-42.67 42.67-42.67s42.67 19.118 42.67 42.67v170.66h170.66c23.552 0 42.67 19.118 42.67 42.67s-19.118 42.67-42.67 42.67h-170.66v170.66c0 23.552-19.118 42.67-42.67 42.67s-42.67-19.118-42.67-42.67v-170.66z" />
<glyph unicode="&#xe93a;" glyph-name="plus_circle" data-tags="plus_circle" d="M512 682.67c-235.479 0-426.67-191.191-426.67-426.67s191.191-426.67 426.67-426.67c235.479 0 426.67 191.191 426.67 426.67s-191.191 426.67-426.67 426.67zM512 597.33c188.385 0 341.33-152.945 341.33-341.33s-152.945-341.33-341.33-341.33c-188.385 0-341.33 152.945-341.33 341.33s152.945 341.33 341.33 341.33zM469.33 298.67h-170.66c-23.552 0-42.67-19.118-42.67-42.67s19.118-42.67 42.67-42.67h170.66v-170.66c0-23.552 19.118-42.67 42.67-42.67s42.67 19.118 42.67 42.67v170.66h170.66c23.552 0 42.67 19.118 42.67 42.67s-19.118 42.67-42.67 42.67h-170.66v170.66c0 23.552-19.118 42.67-42.67 42.67s-42.67-19.118-42.67-42.67v-170.66z" />
<glyph unicode="&#xe93b;" glyph-name="plus" data-tags="plus" d="M469.33 298.67h-341.33c-23.552 0-42.67-19.118-42.67-42.67s19.118-42.67 42.67-42.67h341.33v-341.33c0-23.552 19.118-42.67 42.67-42.67s42.67 19.118 42.67 42.67v341.33h341.33c23.552 0 42.67 19.118 42.67 42.67s-19.118 42.67-42.67 42.67h-341.33v341.33c0 23.552-19.118 42.67-42.67 42.67s-42.67-19.118-42.67-42.67v-341.33z" />
<glyph unicode="&#xe93c;" glyph-name="search" data-tags="search" d="M635.924 71.731l229.908-229.898c16.65-16.65 43.684-16.65 60.334 0s16.65 43.684 0 60.334l-229.898 229.908c44.954 57.815 71.731 130.437 71.731 209.254 0 188.396-152.945 341.34-341.33 341.34-188.396 0-341.34-152.945-341.34-341.34 0-188.385 152.945-341.33 341.34-341.33 78.817 0 151.439 26.778 209.254 71.731zM426.67 597.33c141.292 0 256-114.708 256-256s-114.708-256-256-256c-141.292 0-256 114.708-256 256s114.708 256 256 256z" />
<glyph unicode="&#xe93d;" glyph-name="swap_vert" data-tags="swap_vert" d="M640-24.996l-97.833 97.833c-16.65 16.65-43.684 16.65-60.334 0s-16.65-43.694 0-60.344l170.66-170.66c5.13-5.13 11.233-8.673 17.715-10.65l0.123-0.041c3.594-1.085 7.383-1.7 11.305-1.792l1.034-0.020 1.024 0.020c3.922 0.092 7.711 0.707 11.305 1.792l0.123 0.041c6.482 1.976 12.585 5.519 17.715 10.65l170.67 170.66c16.65 16.65 16.65 43.694 0 60.344s-43.694 16.65-60.344 0l-97.833-97.833v366.326c0 23.552-19.118 42.67-42.66 42.67-23.552 0-42.67-19.118-42.67-42.67v-366.326zM341.33 682.67l-1.024-0.020c-3.922-0.092-7.711-0.707-11.305-1.792l-0.123-0.041c-6.482-1.976-12.585-5.519-17.715-10.65l-170.67-170.66c-16.65-16.65-16.65-43.694 0-60.344s43.694-16.65 60.344 0l97.833 97.833v-366.326c0-23.552 19.118-42.67 42.66-42.67 23.552 0 42.67 19.118 42.67 42.67v366.326l97.833-97.833c16.65-16.65 43.684-16.65 60.334 0s16.65 43.694 0 60.344l-170.66 170.66c-5.13 5.13-11.233 8.673-17.715 10.65l-0.123 0.041c-3.594 1.085-7.383 1.7-11.305 1.792l-1.034 0.020z" />
<glyph unicode="&#xe93e;" glyph-name="table-fill" data-tags="table-fill" d="M938.67 341.33h-512v-512c0 0 384 0 384 0 33.946 0 66.499 13.486 90.511 37.489 24.003 24.013 37.489 56.566 37.489 90.511v384zM85.33 341.33v-384c0-33.946 13.486-66.499 37.489-90.511 24.013-24.003 56.566-37.489 90.511-37.489h128v512h-256zM426.67 682.67v-256h512c0 0 0 128 0 128 0 33.946-13.486 66.499-37.489 90.511-24.013 24.003-56.566 37.489-90.511 37.489h-384zM341.33 682.67h-128c-33.946 0-66.499-13.486-90.511-37.489-24.003-24.013-37.489-56.566-37.489-90.511v-128h256v256z" />
<glyph unicode="&#xe93f;" glyph-name="table" data-tags="table" d="M85.33 554.67v-597.34c0-33.946 13.486-66.499 37.489-90.511 24.013-24.003 56.566-37.489 90.511-37.489h597.34c33.946 0 66.499 13.486 90.511 37.489 24.003 24.013 37.489 56.566 37.489 90.511v597.34c0 33.946-13.486 66.499-37.489 90.511-24.013 24.003-56.566 37.489-90.511 37.489h-597.34c-33.946 0-66.499-13.486-90.511-37.489-24.003-24.013-37.489-56.566-37.489-90.511zM853.33 341.33v-384c0-11.315-4.495-22.17-12.493-30.167s-18.852-12.493-30.167-12.493h-384v426.66h426.66zM341.33 341.33v-426.66h-128c-11.315 0-22.17 4.495-30.167 12.493s-12.493 18.852-12.493 30.167v384h170.66zM341.33 426.67h-170.66v128c0 11.315 4.495 22.17 12.493 30.167s18.852 12.493 30.167 12.493h128v-170.66zM426.67 426.67v170.66h384c11.315 0 22.17-4.495 30.167-12.493s12.493-18.852 12.493-30.167v-128h-426.66z" />
<glyph unicode="&#xe940;" glyph-name="bookmark_crossed" data-tags="bookmark_crossed" d="M213.33 309.883v-437.883c0-14.787 7.66-28.518 20.234-36.291 12.585-7.782 28.293-8.489 41.513-1.874l217.846 108.923c12.012 6.001 26.143 6.001 38.154 0 0 0 217.846-108.923 217.846-108.923 13.22-6.615 28.928-5.908 41.513 1.874 12.575 7.772 20.234 21.504 20.234 36.291v39.66l-597.34 398.223zM104.335 433.828l768-512c19.589-13.056 46.1-7.752 59.167 11.837 13.056 19.599 7.762 46.111-11.837 59.167l-768 512c-19.589 13.066-46.1 7.762-59.167-11.827-13.056-19.599-7.762-46.111 11.837-59.177zM213.33 515l597.34-398.223v437.893c0 70.687-57.313 128-128 128h-341.34c-70.687 0-128-57.313-128-128v-39.67z" />
<glyph unicode="&#xe941;" glyph-name="bookmark-fill" data-tags="bookmark-fill" d="M213.33 554.67v-682.67c0-14.787 7.66-28.518 20.234-36.291 12.585-7.782 28.293-8.489 41.513-1.874l217.846 108.923c12.012 6.001 26.143 6.001 38.154 0 0 0 217.846-108.923 217.846-108.923 13.22-6.615 28.928-5.908 41.513 1.874 12.575 7.772 20.234 21.504 20.234 36.291 0 0 0 482.58 0 682.67 0 70.687-57.313 128-128 128h-341.34c-70.687 0-128-57.313-128-128v0z" />
<glyph unicode="&#xe942;" glyph-name="bookmark" data-tags="bookmark" d="M213.33 554.67v-682.67c0-14.787 7.66-28.518 20.234-36.291 12.585-7.782 28.293-8.489 41.513-1.874l217.846 108.923c12.012 6.001 26.143 6.001 38.154 0 0 0 217.846-108.923 217.846-108.923 13.22-6.615 28.928-5.908 41.513 1.874 12.575 7.772 20.234 21.504 20.234 36.291 0 0 0 482.58 0 682.67 0 70.687-57.313 128-128 128h-341.34c-70.687 0-128-57.313-128-128v0zM298.67 554.67c0 23.562 19.098 42.66 42.66 42.66 0 0 341.34 0 341.34 0 23.562 0 42.66-19.098 42.66-42.66v-613.632l-156.088 78.039c-36.035 18.022-78.449 18.022-114.483 0l-156.088-78.039v613.632z" />
<glyph unicode="&#xe943;" glyph-name="searcher-102" data-tags="searcher-102" d="M85.333 253.619c0-212.126 154.062-388.518 355.554-424.286v308.16h-106.665v118.507h106.665v94.827c0 106.667 68.732 165.902 165.939 165.902 30.793 0 64-4.729 94.793-9.457v-109.049h-54.507c-52.16 0-64-26.062-64-59.27v-82.953h113.775l-18.948-118.507h-94.827v-308.16c201.493 35.767 355.554 212.126 355.554 424.286 0 235.981-192 429.047-426.667 429.047s-426.667-193.067-426.667-429.047z" />
<glyph unicode="&#xe944;" glyph-name="searcher-105" data-tags="searcher-105" d="M512.017 682.667c-125.802 0-228.142-98.791-228.142-220.24 0-121.439 102.34-220.186 228.142-220.186s228.092 98.748 228.092 220.186c0 121.449-102.289 220.24-228.092 220.24zM512.017 553.626c52.070 0 94.409-40.932 94.409-91.2 0-50.247-42.338-91.147-94.409-91.147-52.075 0-94.46 40.899-94.46 91.147 0 50.268 42.385 91.2 94.46 91.2zM323.925 234.748c-22.572 0.337-44.768-10.402-57.644-30.212-19.677-30.182-10.251-70.007 20.937-88.99 41.253-24.986 86.017-42.714 132.439-52.932l-127.495-123.145c-26.1-25.212-26.078-66.044 0.028-91.255 13.084-12.582 30.15-18.88 47.258-18.88 17.091 0 34.214 6.306 47.258 18.906l125.259 120.986 125.367-120.986c26.078-25.203 68.365-25.203 94.49 0 26.112 25.195 26.112 66.069 0 91.226l-127.552 123.123c46.438 10.219 91.217 27.955 132.442 52.958 31.249 18.982 40.687 58.85 21.018 88.986-19.695 30.187-60.924 39.283-92.198 20.267-93.397-56.717-213.739-56.683-307.109 0-10.747 6.537-22.674 9.771-34.497 9.95v0z" />
<glyph unicode="&#xe945;" glyph-name="searcher-106" data-tags="searcher-106" d="M936.235 527.434l-128.777-651.743c-9.724-45.99-35.051-57.438-71.049-35.785l-196.224 155.174-94.669-97.737c-10.487-11.251-19.233-20.638-39.441-20.638l14.112 214.447 363.651 352.642c15.817 15.112-3.443 23.518-24.567 8.374l-449.571-303.808-193.544 65.028c-42.092 14.097-42.854 45.171 8.778 66.859l757.016 312.998c35.051 14.098 65.715-8.374 54.285-65.845v0.033z" />
<glyph unicode="&#xe946;" glyph-name="searcher-103" data-tags="searcher-103" d="M938.667 525.333c-31.381-14.156-65.092-23.721-100.531-28.044 36.565 22.275 63.923 57.332 76.966 98.632-34.355-20.774-71.957-35.397-111.168-43.233-26.368 28.661-61.291 47.658-99.354 54.042-38.059 6.384-77.124-0.204-111.13-18.738-34.010-18.535-61.052-47.981-76.937-83.767-15.881-35.785-19.716-75.908-10.901-114.138-69.615 3.558-137.716 21.978-199.884 54.064s-117.014 77.121-160.979 132.182c-15.033-26.399-23.677-57.006-23.677-89.603-0.017-29.344 7.082-58.24 20.666-84.122s33.233-47.95 57.204-64.249c-27.8 0.9-54.987 8.549-79.298 22.307v-2.295c-0.003-41.157 13.982-81.046 39.581-112.901s61.236-53.713 100.863-61.867c-25.789-7.104-52.827-8.154-79.072-3.059 11.18-35.413 32.959-66.381 62.287-88.567s64.736-34.483 101.269-35.166c-62.016-49.562-138.606-76.442-217.449-76.326-13.966-0.004-27.921 0.828-41.791 2.487 80.029-52.382 173.19-80.183 268.335-80.077 322.078 0 498.147 271.565 498.147 507.087 0 7.652-0.188 15.38-0.525 23.032 34.249 25.214 63.808 56.436 87.3 92.204l0.077 0.115z" />
<glyph unicode="&#xe947;" glyph-name="searcher-101" data-tags="searcher-101" d="M919.219 474.387c5.862 21.667 0 37.613-28.198 37.613h-93.303c-23.765 0-34.692-13.693-40.555-28.947 0 0-47.522-126.706-114.692-208.864-21.7-23.748-31.68-31.377-43.563-31.377-5.862 0-14.891 7.629-14.891 29.295v202.28c0 26-6.652 37.613-26.295 37.613h-146.691c-14.891 0-23.762-12.133-23.762-23.4 0-24.613 33.583-30.333 37.069-99.666v-150.452c0-32.934-5.386-39.002-17.267-39.002-31.683 0-108.671 127.227-154.294 272.827-9.188 28.253-18.217 39.693-42.138 39.693h-93.305c-26.613 0-32-13.693-32-28.947 0-27.040 31.683-161.373 147.482-338.865 77.147-121.161 185.818-186.854 284.667-186.854 59.405 0 66.692 14.562 66.692 39.693 0 115.789-5.385 126.707 24.397 126.707 13.781 0 37.542-7.625 92.988-66.039 63.364-69.333 73.822-100.361 109.303-100.361h93.308c26.611 0 40.077 14.562 32.316 43.332-17.741 60.493-137.66 184.947-143.049 193.267-13.781 19.413-9.822 28.079 0 45.414 0.158 0.175 114.057 175.586 125.781 235.040v0z" />
<glyph unicode="&#xe948;" glyph-name="external" data-tags="external" d="M384 682.67h-169.544c-34.243 0-67.082-13.609-91.3-37.827s-37.827-57.057-37.827-91.31c0-148.091 0-448.553 0-596.009 0-33.997 13.507-66.601 37.55-90.644s56.648-37.55 90.644-37.55c147.835 0 449.444 0 597.135 0 70.697 0 128.010 57.313 128.010 128.010v170.66c0 23.552-19.118 42.67-42.67 42.67s-42.67-19.118-42.67-42.67v-170.66c0-23.572-19.098-42.67-42.67-42.67 0 0-597.135 0-597.135 0-11.366 0-22.262 4.516-30.3 12.554s-12.554 18.934-12.554 30.3v596.009c0 11.622 4.608 22.764 12.82 30.976s19.354 12.82 30.966 12.82h169.544c23.552 0 42.67 19.118 42.67 42.67s-19.118 42.67-42.67 42.67zM896 682.67c0 0-256 0-256 0-23.552 0-42.67-19.118-42.67-42.67s19.118-42.67 42.67-42.67h152.996l-311.163-311.163c-16.65-16.65-16.65-43.684 0-60.334s43.684-16.65 60.334 0l311.163 311.163v-152.996c0-23.552 19.118-42.67 42.67-42.67s42.67 19.118 42.67 42.67v256l-0.020 1.096c-0.133 5.366-1.26 10.476-3.195 15.176l-0.051 0.123c-2.089 5.007-5.161 9.708-9.236 13.773-4.065 4.076-8.765 7.148-13.773 9.236l-1.239 0.492-1.229 0.44-1.249 0.41-1.26 0.369-1.27 0.338-1.29 0.297-1.311 0.256-1.321 0.205-1.331 0.174-1.341 0.133-1.362 0.092-1.362 0.051-0.829 0.010z" />
<glyph unicode="&#xe949;" glyph-name="yandex_xml-ru" data-tags="yandex_xml-ru" d="M214.385 682.67c-34.232 0-67.052-13.599-91.259-37.796-24.197-24.207-37.796-57.027-37.796-91.259v-597.197c0-33.956 13.496-66.529 37.499-90.532 24.013-24.013 56.576-37.509 90.532-37.509 145.664 0 426.639 0 426.639 0 14.285 0 27.617 7.148 35.533 19.046l256 384.952c9.523 14.326 9.513 32.973-0.031 47.288l-256 384c-7.916 11.868-21.238 19.005-35.502 19.005h-425.615zM214.385 597.33h402.78c0 0 227.574-341.361 227.574-341.361s-227.604-342.252-227.604-342.252c0 0-403.773 0-403.773 0-11.315 0-22.18 4.495-30.188 12.503s-12.503 18.872-12.503 30.198v597.197c0 11.602 4.598 22.712 12.8 30.915s19.313 12.8 30.915 12.8zM512-30.218l85.33-0.174v0.174h-0.645v584.97l-127.334 0.174c-139.602 0-213.35-76.524-213.35-189.020 0-90.020 40.489-143.37 112.445-198.021l-125.133-198.011h103.424l139.039 221.788-48.384 34.673c-58.696 41.769-87.081 68.833-87.081 139.571 0 62.341 41.144 104.11 119.685 104.11h42.004v-500.234z" />
<glyph unicode="&#xe94a;" glyph-name="yandex_xml-fill-ru" data-tags="yandex_xml-fill-ru" d="M85.33 554.67v0c0 70.687 57.313 128 128 128 145.654 0 426.67 0 426.67 0 14.264 0 27.587-7.137 35.502-19.005l256-384c9.554-14.326 9.554-33.004 0-47.329l-256-384c-7.916-11.868-21.238-19.005-35.502-19.005h-426.67c-70.687 0-128 57.313-128 128 0 147.763 0 449.577 0 597.34zM512-30.218l85.33-0.174v0.174h-0.645v584.97l-127.334 0.174c-139.602 0-213.35-76.524-213.35-189.020 0-90.020 40.489-143.37 112.445-198.021l-125.133-198.011h103.424l139.039 221.788-48.384 34.673c-58.696 41.769-87.081 68.833-87.081 139.571 0 62.341 41.144 104.11 119.685 104.11h42.004v-500.234z" />
<glyph unicode="&#xe94b;" glyph-name="academic_cap" data-tags="academic_cap" d="M213.34 299.377l-102.666 45.629c-15.411 6.851-25.344 22.129-25.344 38.994s9.933 32.143 25.344 38.994l384 170.66c11.028 4.905 23.624 4.905 34.652 0l384-170.66c15.411-6.851 25.344-22.129 25.344-38.994s-9.933-32.143-25.344-38.994l-102.666-45.629c0-0.236 0.010-0.471 0.010-0.707v-256c0-11.315-4.495-22.17-12.503-30.177 0 0-94.894-97.823-286.167-97.823s-286.167 97.823-286.167 97.823c-8.008 8.008-12.503 18.862-12.503 30.177v256c0 0.236 0.010 0.471 0.010 0.707zM725.33 261.458l-196.004-87.112c-11.028-4.905-23.624-4.905-34.652 0l-196.004 87.112c0-66.488 0-198.769 0.010-198.779 27.156-20.029 98.478-62.679 213.32-62.679s186.163 42.65 213.33 62.689v198.769zM853.33 256c0 23.552 19.118 42.67 42.67 42.67s42.67-19.118 42.67-42.67v-128c0-23.552-19.118-42.67-42.67-42.67s-42.67 19.118-42.67 42.67v128zM233.052 384l278.948-123.976c0 0 278.948 123.976 278.948 123.976s-278.948 123.976-278.948 123.976l-278.948-123.976z" />
<glyph unicode="&#xe94c;" glyph-name="yandex_xml-fill-en" data-tags="yandex_xml-fill-en" d="M85.33 555.121c0 70.441 57.108 127.549 127.549 127.549 145.521 0 427.121 0 427.121 0 14.264 0 27.587-7.137 35.502-19.005l256-384c9.554-14.326 9.554-33.004 0-47.329l-256-384c-7.916-11.868-21.238-19.005-35.502-19.005h-425.82c-71.158 0-128.85 57.692-128.85 128.85v596.941zM465.070 0c0 0 1.761 116.521-17.070 170.67-28.447 81.777-149.33 320-149.33 320h-85.34c0 0 120.893-238.223 149.34-320 18.831-54.149 17.060-170.67 17.060-170.67h85.34zM448 256h85.33l106.67 234.67h-85.33l-106.67-234.67z" />
<glyph unicode="&#xe94d;" glyph-name="yandex_xml-en" data-tags="yandex_xml-en" d="M85.33 555.121v-596.941c0-71.158 57.692-128.85 128.85-128.85h425.82c14.264 0 27.587 7.137 35.502 19.005l256 384c9.554 14.326 9.554 33.004 0 47.329l-256 384c-7.916 11.868-21.238 19.005-35.502 19.005 0 0-281.6 0-427.121 0-70.441 0-127.549-57.108-127.549-127.549zM170.67 555.121c0 23.316 18.903 42.209 42.209 42.209h404.285c0 0 227.553-341.33 227.553-341.33s-227.553-341.33-227.553-341.33c0 0-402.985 0-402.985 0-24.033 0-43.51 19.476-43.51 43.51v596.941zM465.070 0c0 0 1.761 116.521-17.070 170.67-28.447 81.777-149.33 320-149.33 320h-85.34c0 0 120.893-238.223 149.34-320 18.831-54.149 17.060-170.67 17.060-170.67h85.34zM448 256h85.33l106.67 234.67h-85.33l-106.67-234.67z" />
<glyph unicode="&#xe94e;" glyph-name="triangle" data-tags="triangle" d="M405.5-70.985c23.747-35.604 63.713-57.015 106.506-57.015s82.76 21.411 106.506 57.015l255.99 383.987c26.175 39.259 28.632 89.761 6.36 131.386s-65.65 67.612-112.867 67.612h-512.010c-47.186 0-90.563-25.988-112.835-67.612s-19.845-92.127 6.328-131.386l256.020-383.987z" />
<glyph unicode="&#xe94f;" glyph-name="external-16" data-tags="external-16" d="M511.992 704h-288.002c-42.424 0-83.128-16.85-113.127-46.863-30.013-29.999-46.863-70.703-46.863-113.127v-576.003c0-42.438 16.85-83.142 46.863-113.146 29.999-30.010 70.703-46.861 113.127-46.861h576.003c42.438 0 83.142 16.851 113.146 46.861 30.010 30.003 46.861 70.707 46.861 113.146v288.001c0 17.649-14.349 31.995-31.994 31.995-17.664 0-32.013-14.346-32.013-31.995v-288.001c0-25.466-10.106-49.888-28.109-67.891s-42.426-28.109-67.891-28.109h-576.003c-25.452 0-49.874 10.106-67.876 28.109s-28.124 42.426-28.124 67.891v576.003c0 25.452 10.122 49.874 28.124 67.876s42.424 28.124 67.876 28.124h288.002c17.664 0 32.010 14.332 32.010 31.996s-14.346 31.995-32.010 31.995v0zM850.746 640.010l-201.37-201.386c-12.491-12.488-12.491-32.764 0-45.251 12.486-12.488 32.762-12.488 45.248 0l201.37 201.371v-178.746c0-17.649 14.349-31.995 32.013-31.995 17.645 0 31.994 14.346 31.994 31.995v256.007c0 17.679-14.33 31.995-31.994 31.995h-256.006c-17.664 0-31.994-14.331-31.994-31.995s14.33-31.996 31.994-31.996h178.746z" />
<glyph unicode="&#xe950;" glyph-name="more-vertical-16" data-tags="more-vertical-16" d="M509.448 3.821c35.152 0 63.687-28.534 63.687-63.687 0-35.137-28.534-63.671-63.687-63.671-35.137 0-63.671 28.534-63.671 63.671 0 35.152 28.534 63.687 63.671 63.687zM509.448 322.224c35.152 0 63.687-28.534 63.687-63.671 0-35.152-28.534-63.687-63.687-63.687-35.137 0-63.671 28.534-63.671 63.687 0 35.137 28.534 63.671 63.671 63.671zM509.448 640.642c35.152 0 63.687-28.534 63.687-63.687s-28.534-63.687-63.687-63.687c-35.137 0-63.671 28.534-63.671 63.687s28.534 63.687 63.671 63.687z" />
<glyph unicode="&#xe951;" glyph-name="amp-16" data-tags="amp-16" d="M448.002-127.994l255.992 447.992h-127.996v320.012l-256.007-448.008h128.011v-319.996zM511.992 704c123.203 0 228.481-44.79 315.848-132.158 87.354-87.353 132.16-192.646 132.16-315.834 0-123.203-44.806-228.481-132.16-315.848-87.366-87.354-192.644-132.16-315.848-132.16-123.188 0-228.481 44.806-315.834 132.16-87.368 87.366-132.158 192.644-132.158 315.848 0 123.188 44.79 228.481 132.158 315.834 87.353 87.368 192.646 132.158 315.834 132.158v0z" />
<glyph unicode="&#xe952;" glyph-name="checked-circle-16" data-tags="checked-circle-16" d="M960 256.008c0-247.438-200.57-448.008-448.008-448.008-247.42 0-447.992 200.57-447.992 448.008 0 247.42 200.572 447.992 447.992 447.992 247.438 0 448.008-200.572 448.008-447.992zM274.802 204.060l153.57-128.547c10.399-8.403 22.395-12.211 35.989-11.418 14.008 0.8 25.605 6.406 34.79 16.819l255.562 281.707c9.6 10.414 13.99 22.625 13.19 36.634-0.397 14.423-5.786 26.236-16.186 35.436-10.4 9.615-22.81 14.024-37.203 13.225-13.99-0.399-25.792-5.806-35.392-16.22l-222.55-245.67c0 0-6.206 5.007-18.602 15.023l-97.782 81.684c-10.798 9.216-23.194 13.010-37.202 11.412-13.993-1.198-25.59-7.204-34.79-18.017s-13.194-23.424-11.996-37.847c1.597-14.008 7.803-25.421 18.601-34.222v0z" />
<glyph unicode="&#xe953;" glyph-name="crown-16" data-tags="crown-16" d="M122.215 690.354l195.718-279.597 166.627 277.708c5.775 9.631 16.205 15.529 27.433 15.529 11.244 0 21.658-5.898 27.448-15.529l166.627-277.708 195.718 279.597c8 11.443 22.515 16.358 35.834 12.165s22.381-16.558 22.381-30.52v-767.999c0-53.024-42.976-96-96-96h-703.999c-53.023 0-96.001 42.976-96.001 96v767.999l0.261 4.086c0.323 2.565 0.952 5.038 1.859 7.373l0.384 0.998 2.964 5.453c1.398 2.074 3.057 4.009 4.977 5.745l3.671 2.872 5.422 2.964 6.006 1.859 4.808 0.614 5.729-0.23c2.565-0.323 5.038-0.952 7.373-1.859l0.998-0.384 5.453-2.964c2.074-1.398 4.009-3.057 5.745-4.977l2.566-3.195zM895.994 0h-768.003v-96c0-17.677 14.331-31.994 32.010-31.994h703.999c17.677 0 31.994 14.317 31.994 31.994v96zM895.994 64.006v506.478l-165.779-236.835c-6.221-8.878-16.512-14.008-27.341-13.624-10.829 0.369-20.736 6.221-26.31 15.514l-164.571 274.268-164.552-274.268c-5.576-9.293-15.484-15.145-26.312-15.514-10.844-0.384-21.135 4.746-27.341 13.624l-165.796 236.835v-506.478h768.003z" />
<glyph unicode="&#xe954;" glyph-name="desktop-16" data-tags="desktop-16" d="M864 640h-703.999c-25.467 0-49.89-10.122-67.892-28.124s-28.109-42.424-28.109-67.875c0-110.821 0-337.18 0-448.001 0-25.466 10.107-49.875 28.109-67.878 18.002-18.016 42.425-28.122 67.892-28.122h703.999c25.466 0 49.875 10.106 67.878 28.122 18.016 18.003 28.122 42.413 28.122 67.878 0 110.82 0 337.18 0 448.001 0 25.452-10.106 49.874-28.122 67.875-18.003 18.002-42.413 28.124-67.878 28.124v0zM864 575.996c8.493 0 16.621-3.379 22.624-9.37 6.010-6.006 9.37-14.147 9.37-22.625v-448.001c0-8.493-3.36-16.621-9.37-22.624-6.003-6.010-14.131-9.37-22.624-9.37h-703.999c-8.494 0-16.635 3.36-22.625 9.37-6.006 6.003-9.385 14.131-9.385 22.624v448.001c0 8.479 3.379 16.62 9.385 22.625 5.99 5.99 14.131 9.37 22.61 9.37h704.015zM352.010-128h319.996c17.664 0 31.994 14.336 31.994 32s-14.33 32-31.994 32h-319.996c-17.664 0-32.010-14.336-32.010-32s14.346-32 32.010-32z" />
<glyph unicode="&#xe955;" glyph-name="down-circle-16" data-tags="down-circle-16" d="M511.992-192c-247.251 0-447.992 200.742-447.992 448.008 0 247.251 200.741 447.992 447.992 447.992 247.265 0 448.008-200.741 448.008-447.992 0-247.265-200.742-448.008-448.008-448.008zM463.009 180.743l-108.903 110.024c-18.632 18.831-49.045 18.985-67.876 0.353-18.831-18.647-18.985-49.060-0.353-67.891l191.003-193.002c2.918-2.931 6.175-5.466 9.692-7.539l0.138-0.077c6.851-4.038 14.792-6.419 23.255-6.605h2.12c8.479 0.198 16.404 2.579 23.255 6.618l0.077 0.051c3.456 2.042 6.651 4.512 9.523 7.386l193 193c18.739 18.724 18.739 49.152 0 67.876-18.739 18.739-49.152 18.739-67.878 0l-111.052-111.053v268.126c0 26.481-21.519 48-48 48-26.496 0-48-21.519-48-48v-267.266z" />
<glyph unicode="&#xe956;" glyph-name="equal-circle-16" data-tags="equal-circle-16" d="M511.992 704v0c247.265 0 448.008-200.741 448.008-447.992 0-247.265-200.742-448.008-448.008-448.008-247.251 0-447.992 200.742-447.992 448.008 0 247.251 200.741 447.992 447.992 447.992zM704.992 175.997h-384.003c-26.496 0-48-21.504-48-48.003 0-26.477 21.504-48 48-48h384.003c26.496 0 48 21.523 48 48 0 26.499-21.504 48.003-48 48.003zM704.992 432.004h-384.003c-26.496 0-48-21.505-48-48.001s21.504-48 48-48h384.003c26.496 0 48 21.504 48 48s-21.504 48.001-48 48.001z" />
<glyph unicode="&#xe957;" glyph-name="phone-16" data-tags="phone-16" d="M256 607.999v-703.999c0-25.466 10.107-49.875 28.109-67.878 18.003-18.016 42.425-28.122 67.892-28.122 85.157 0 234.842 0 319.999 0 25.466 0 49.875 10.106 67.878 28.122 18.016 18.003 28.122 42.413 28.122 67.878v703.999c0 25.467-10.106 49.89-28.122 67.892-18.003 18.002-42.413 28.109-67.878 28.109-85.158 0-234.842 0-319.999 0-25.467 0-49.889-10.107-67.892-28.109s-28.109-42.425-28.109-67.892v0zM319.99 608.015c0 8.479 3.379 16.62 9.385 22.61 5.99 6.006 14.131 9.385 22.625 9.385h319.999c8.493 0 16.621-3.379 22.624-9.385 6.003-5.99 9.37-14.131 9.37-22.61 0-0.015 0-704.015 0-704.015 0-8.493-3.366-16.621-9.37-22.624-6.003-6.010-14.131-9.37-22.624-9.37h-319.999c-8.494 0-16.635 3.36-22.625 9.37-6.006 6.003-9.385 14.131-9.385 22.624v704.015zM511.992 64.006c-35.313 0-63.99-28.678-63.99-64.006s28.677-64.006 63.99-64.006c35.329 0 64.006 28.678 64.006 64.006s-28.677 64.006-64.006 64.006z" />
<glyph unicode="&#xe958;" glyph-name="tablet-16" data-tags="tablet-16" d="M864 576h-703.999c-25.467 0-49.89-10.107-67.892-28.124-18.002-18.001-28.109-42.408-28.109-67.875 0-110.821 0-337.18 0-448.001 0-25.453 10.107-49.875 28.109-67.878 18.002-17.997 42.425-28.122 67.892-28.122h703.999c25.466 0 49.875 10.125 67.878 28.122 18.016 18.003 28.122 42.426 28.122 67.878 0 110.82 0 337.18 0 448.001 0 25.467-10.106 49.874-28.122 67.875-18.003 18.017-42.413 28.124-67.878 28.124zM864 511.996c8.493 0 16.621-3.364 22.624-9.37 6.010-6.006 9.37-14.131 9.37-22.625v-448.001c0-8.48-3.36-16.621-9.37-22.624-6.003-5.99-14.131-9.37-22.624-9.37h-703.999c-8.494 0-16.635 3.379-22.625 9.37-6.006 6.003-9.385 14.144-9.385 22.624v448.001c0 8.494 3.379 16.62 9.385 22.625 5.99 6.006 14.131 9.37 22.61 9.37h704.015zM415.994 64h191.996c17.663 0 32.010 14.336 32.010 32s-14.346 32-32.010 32h-191.996c-17.648 0-31.994-14.336-31.994-32s14.346-32 31.994-32z" />
<glyph unicode="&#xe959;" glyph-name="turbo-16" data-tags="turbo-16" d="M563.525-98.125c218.964 0 396.475 179.571 396.475 401.062 0 221.505-177.51 401.063-396.475 401.063s-396.476-179.558-396.476-401.063c0-8.694 0.276-17.341 0.814-25.912 12.303 182.522 162.55 326.706 346.096 326.706 191.596 0 346.924-157.117 346.924-350.929 0-185.653-142.522-337.64-322.932-350.101 8.447-0.55 16.972-0.826 25.574-0.826zM173.916 35.475c19.276 12.979 47.86 25.958 62.221 28.262 15.82 2.547 15.329-3.027-1.536-17.171-45.526-38.189-68.012-69.459-77.243-107.398-3.395-13.99-6.236-40.717-4.454-41.856 0.476-0.307 6.927-0.064 14.33 0.538 35.726 2.906 63.005 14.758 94.185 40.966 11.688 9.83 20.336 19.2 39.213 42.547 5.99 7.418 11.335 12.563 12.994 12.518 11.827-0.262-4.362-45.485-29.245-81.658-22.148-32.205-52.836-59.808-86.013-77.35-33.116-17.498-78.656-27.725-119.528-26.816l-14.515 0.307-0.292 15.142c-0.583 29.613 6.513 71.040 16.696 97.613 17.971 46.835 48.444 84.25 93.186 114.355v0zM683.654 469.7c-67.876-11.643-133.723-42.977-195.361-92.959-22.317-18.109-70.561-67.43-101.619-103.91l-25.773-30.259-59.718-0.675c-51.931-0.584-62.959-0.538-69.871-5.868-2.089-1.613-3.794-3.717-6.159-6.482-26.28-30.843-83.509-110.328-98.562-136.888-7.756-13.702-5.636-21.722 5.484-20.736 1.275 0.122 11.243 6.208 22.148 13.517 28.614 19.187 35.91 23.533 57.798 34.374 32.685 16.221 52.621 19.877 73.71 13.549 5.299-1.597 9.631-3.087 9.631-3.318 0-0.215-1.014-3.716-2.243-7.754-3.502-11.443-5.422-30.893-4.163-42.118 1.628-14.714 6.989-27.36 15.82-37.574 10.092-8.934 22.579-14.342 37.14-16 11.105-1.261 30.319 0.672 41.624 4.205 4.008 1.248 7.449 2.278 7.679 2.291 0.23 0 1.705-4.39 3.272-9.754 6.267-21.338 2.642-41.504-13.378-74.573-10.737-22.131-15.022-29.504-33.991-58.458-7.234-11.046-13.24-21.12-13.363-22.413-0.983-11.258 6.958-13.395 20.505-5.542 26.25 15.219 104.829 73.126 135.302 99.699 2.719 2.368 4.777 4.083 6.374 6.176 5.315 6.97 5.268 18.016 5.852 70.733l0.66 60.41 29.905 26.080c36.064 31.427 84.831 80.21 102.724 102.804 49.414 62.346 80.39 128.947 91.91 197.605 1.645 9.861 1.35 38.938-0.442 43.407-4.41 1.812-33.165 2.104-42.899 0.43v0z" />
<glyph unicode="&#xe95a;" glyph-name="up-circle-16" data-tags="up-circle-16" d="M511.992 704v0c247.265 0 448.008-200.741 448.008-447.992 0-247.265-200.742-448.008-448.008-448.008-247.251 0-447.992 200.742-447.992 448.008 0 247.251 200.741 447.992 447.992 447.992zM513.052 496.009l-1.152-0.015c-8.463-0.184-16.389-2.58-23.24-6.62l-0.092-0.046c-3.441-2.028-6.636-4.5-9.523-7.388l-192.984-192.984c-18.739-18.739-18.739-49.152 0-67.891 18.724-18.724 49.137-18.724 67.876 0l111.053 111.053v-268.111c0-26.496 21.504-48 48-48s48 21.504 48 48v267.266l108.891-110.024c18.63-18.831 49.056-18.985 67.891-0.353 18.816 18.632 18.982 49.044 0.333 67.876l-191 193c-2.918 2.949-6.175 5.468-9.677 7.542l-0.138 0.092c-6.851 4.024-14.792 6.405-23.27 6.589l-0.968 0.015z" />
<glyph unicode="&#xe95b;" glyph-name="user-fill-16" data-tags="user-fill-16" d="M799.987-128c17.683 0 32.013 14.317 32.013 31.994 0 175.77-144.243 352.011-320.008 352.011-175.748 0-319.992-176.241-319.992-352.011 0-17.677 14.331-31.994 31.995-31.994h575.992zM511.992 704c-105.968 0-191.999-86.033-191.999-192.003s86.031-192.002 191.999-192.002c105.968 0 192.001 86.032 192.001 192.002s-86.033 192.003-192.001 192.003z" />
<glyph unicode="&#xe95c;" glyph-name="bulleted_list" data-tags="bulleted_list" d="M128 42.67c23.552 0 42.67-19.118 42.67-42.67s-19.118-42.67-42.67-42.67c-23.552 0-42.67 19.118-42.67 42.67s19.118 42.67 42.67 42.67zM298.67-42.67h597.33c23.552 0 42.67 19.118 42.67 42.67s-19.118 42.67-42.67 42.67h-597.33c-23.552 0-42.67-19.118-42.67-42.67s19.118-42.67 42.67-42.67zM128 298.67c23.552 0 42.67-19.118 42.67-42.67s-19.118-42.67-42.67-42.67c-23.552 0-42.67 19.118-42.67 42.67s19.118 42.67 42.67 42.67zM298.67 213.33h597.33c23.552 0 42.67 19.118 42.67 42.67s-19.118 42.67-42.67 42.67h-597.33c-23.552 0-42.67-19.118-42.67-42.67s19.118-42.67 42.67-42.67zM128 554.67c23.552 0 42.67-19.118 42.67-42.67s-19.118-42.67-42.67-42.67c-23.552 0-42.67 19.118-42.67 42.67s19.118 42.67 42.67 42.67zM298.67 469.33h597.33c23.552 0 42.67 19.118 42.67 42.67s-19.118 42.67-42.67 42.67h-597.33c-23.552 0-42.67-19.118-42.67-42.67s19.118-42.67 42.67-42.67z" />
<glyph unicode="&#xe95d;" glyph-name="checked-indicate-16" data-tags="checked-indicate-16" d="M210.732 210.747l192.006-192.001c25.007-24.992 65.528-24.992 90.519 0l384.010 384.004c24.979 24.976 24.979 65.542 0 90.518-24.973 24.976-65.542 24.976-90.515 0l-338.747-338.755-146.754 146.752c-24.976 24.976-65.543 24.976-90.519 0s-24.976-65.542 0-90.518v0z" />
<glyph unicode="&#xe95e;" glyph-name="flag" data-tags="flag" d="M170.67 555.377v0c0 0 0.020 5.079 1.219 11.889 2.15 12.175 8.735 36.362 32.604 60.242 25.795 25.795 76.329 55.163 179.507 55.163 70.636 0 129.69-22.804 182.661-46.346 41.964-18.647 78.705-38.994 116.009-38.994 64.748 0 97.823 30.177 97.823 30.177 4.076 4.065 8.776 7.148 13.783 9.226l0.123 0.051c5.018 2.068 10.506 3.215 16.271 3.215 5.755 0 11.254-1.147 16.261-3.215l0.123-0.051c5.018-2.079 9.708-5.161 13.783-9.226 4.076-4.076 7.148-8.776 9.226-13.783l0.051-0.123c2.079-5.018 3.215-10.506 3.215-16.271v-384c0-5.755-1.137-11.254-3.215-16.261l-0.051-0.123c-2.079-5.018-5.151-9.708-9.226-13.783 0 0-52.224-55.163-158.167-55.163-39.66 0-79.636 14.684-122.46 33.71-50.442 22.426-106.148 51.62-176.21 51.62-105.656 0-126.525-41.513-128-44.78v-296.55c0-23.552-19.118-42.67-42.67-42.67-23.542 0-42.66 19.118-42.66 42.67v682.67c0 0.236 0 0.471 0 0.707zM768 525.353c-22.958-7.69-51.384-13.353-85.33-13.353-39.66 0-79.636 14.684-122.46 33.71-50.442 22.426-106.148 51.62-176.21 51.62-105.656 0-126.525-41.513-128-44.78v-275.425c29.614 12.483 70.687 21.545 128 21.545 70.636 0 129.69-22.804 182.661-46.346 41.964-18.647 78.705-38.994 116.009-38.994 41.708 0 70.277 12.524 85.33 21.432v290.591z" />
<glyph unicode="&#xe95f;" glyph-name="academic_cap-fill" data-tags="academic_cap-fill" d="M810.67 214.047l-281.344-125.041c-11.028-4.895-23.624-4.895-34.652 0l-281.344 125.041v-171.377c0-11.315 4.495-22.17 12.503-30.177 0 0 94.894-97.823 286.167-97.823s286.167 97.823 286.167 97.823c8.008 8.008 12.503 18.862 12.503 30.177v171.377zM853.33 256v-128c0-23.552 19.118-42.67 42.67-42.67s42.67 19.118 42.67 42.67v128c0 23.552-19.118 42.67-42.67 42.67s-42.67-19.118-42.67-42.67zM122.307 339.845c1.782-0.563 3.676-1.29 5.693-2.191 0 0 384-166.984 384-166.984l384 166.984c2.017 0.901 3.912 1.628 5.693 2.191l11.633 5.161c15.411 6.851 25.344 22.129 25.344 38.994s-9.933 32.143-25.344 38.994l-384 170.66c-11.028 4.905-23.624 4.905-34.652 0l-384-170.66c-15.411-6.851-25.344-22.129-25.344-38.994s9.933-32.143 25.344-38.994l11.633-5.161z" />
<glyph unicode="&#xe960;" glyph-name="analysis-fill" data-tags="analysis-fill" d="M170.67 256v-85.33c0-23.552-19.118-42.67-42.67-42.67s-42.67 19.118-42.67 42.67c0 0 0 185.518 0 298.66 0 33.956 13.486 66.509 37.499 90.511 24.003 24.003 56.556 37.489 90.501 37.489 147.763 0 449.577 0 597.34 0 33.946 0 66.499-13.486 90.501-37.489 24.013-24.003 37.499-56.556 37.499-90.511v-426.66c0-70.697-57.313-128-128-128h-426.67c-23.552 0-42.67 19.118-42.67 42.66 0 23.552 19.118 42.67 42.67 42.67 0 0 426.67 0 426.67 0 23.562 0 42.66 19.098 42.66 42.67v213.33h-682.66zM155.31-75.448l231.526 192.942c0 0 101.499-67.666 101.499-67.666 14.326-9.554 33.004-9.554 47.329 0l104.335 69.56c0 0 104.335-69.56 104.335-69.56 19.589-13.056 46.1-7.752 59.167 11.837 13.056 19.599 7.762 46.111-11.837 59.167l-128 85.34c-14.326 9.554-33.004 9.554-47.329 0l-104.335-69.56c0 0-104.335 69.56-104.335 69.56-15.718 10.476-36.465 9.37-50.975-2.724l-256-213.34c-18.094-15.073-20.541-41.994-5.468-60.088s42.004-20.541 60.088-5.468zM768 469.33h-341.33c-23.552 0-42.67-19.118-42.67-42.66 0-23.552 19.118-42.67 42.67-42.67h341.33c23.552 0 42.67 19.118 42.67 42.67 0 23.542-19.118 42.66-42.67 42.66zM256 384h42.67c23.542 0 42.66 19.118 42.66 42.67 0 23.542-19.118 42.66-42.66 42.66h-42.67c-23.552 0-42.67-19.118-42.67-42.66 0-23.552 19.118-42.67 42.67-42.67z" />
<glyph unicode="&#xe961;" glyph-name="hammer-fill" data-tags="hammer-fill" d="M384 280.996l45.67-45.67-329.769-288.553c-8.888-7.772-14.152-18.883-14.541-30.689-0.399-11.796 4.116-23.235 12.472-31.59l42.66-42.66c8.356-8.356 19.794-12.872 31.59-12.472 11.807 0.389 22.917 5.652 30.689 14.541l288.553 329.769 45.67-45.67-12.503-12.493c-16.66-16.671-16.66-43.684 0-60.344l85.34-85.33c16.66-16.66 43.674-16.66 60.334 0l256 256c16.66 16.66 16.66 43.674 0 60.334l-85.33 85.34c-16.66 16.66-43.674 16.66-60.344 0l-12.493-12.503-152.996 152.996 12.503 12.493c16.66 16.671 16.66 43.684 0 60.344l-85.34 85.33c-16.66 16.66-43.674 16.66-60.334 0l-256-256c-16.66-16.66-16.66-43.674 0-60.334l85.33-85.34c16.66-16.66 43.674-16.66 60.344 0l12.493 12.503z" />
<glyph unicode="&#xe962;" glyph-name="hammer" data-tags="hammer" d="M384 280.996l45.67-45.67-329.769-288.553c-8.888-7.772-14.152-18.883-14.541-30.689-0.399-11.796 4.116-23.235 12.472-31.59l42.66-42.66c8.356-8.356 19.794-12.872 31.59-12.472 11.807 0.389 22.917 5.652 30.689 14.541l288.553 329.769 45.67-45.67-12.503-12.493c-16.66-16.671-16.66-43.684 0-60.344l85.34-85.33c16.66-16.66 43.674-16.66 60.334 0l256 256c16.66 16.66 16.66 43.674 0 60.334l-85.33 85.34c-16.66 16.66-43.674 16.66-60.344 0l-12.493-12.503-152.996 152.996 12.503 12.493c16.66 16.671 16.66 43.684 0 60.344l-85.34 85.33c-16.66 16.66-43.674 16.66-60.334 0l-256-256c-16.66-16.66-16.66-43.674 0-60.334l85.33-85.34c16.66-16.66 43.674-16.66 60.344 0l12.493 12.503zM810.67 280.996c0 0 24.986-24.996 24.986-24.996l-195.656-195.656-24.996 24.986 195.666 195.666zM554.67 451.656l152.986-152.986c0 0-110.326-110.326-110.326-110.326s-152.986 152.986-152.986 152.986l110.326 110.326zM524.564 542.228l-183.235-183.224c0 0-24.986 24.996-24.986 24.996l195.656 195.656 24.996-24.986-12.431-12.442z" />
<glyph unicode="&#xe963;" glyph-name="home-fill" data-tags="home-fill" d="M134.748 400.64c-31.181-24.259-49.418-61.542-49.418-101.038 0-76.626 0-241.111 0-342.272 0-33.946 13.486-66.499 37.489-90.501 24.013-24.013 56.566-37.499 90.511-37.499 147.763 0 449.577 0 597.34 0 33.946 0 66.499 13.486 90.511 37.499 24.003 24.003 37.489 56.556 37.489 90.501 0 101.161 0 265.646 0 342.272 0 39.496-18.237 76.78-49.418 101.038-93.041 72.356-351.058 273.039-351.058 273.039-15.411 11.981-36.977 11.981-52.388 0 0 0-258.017-200.684-351.058-273.039zM384-85.33v256h256v-256h-256z" />
<glyph unicode="&#xe964;" glyph-name="home" data-tags="home" d="M134.748 400.64c93.041 72.356 351.058 273.039 351.058 273.039 15.411 11.981 36.977 11.981 52.388 0 0 0 258.017-200.684 351.058-273.039 31.181-24.259 49.418-61.542 49.418-101.038 0-76.626 0-241.111 0-342.272 0-33.946-13.486-66.499-37.489-90.501-24.013-24.013-56.566-37.499-90.511-37.499-147.763 0-449.577 0-597.34 0-33.946 0-66.499 13.486-90.511 37.499-24.003 24.003-37.489 56.556-37.489 90.501 0 101.161 0 265.646 0 342.272 0 39.496 18.237 76.78 49.418 101.038zM682.67-85.33h128c11.315 0 22.17 4.495 30.167 12.493s12.493 18.852 12.493 30.167v342.272c0 13.158-6.072 25.59-16.466 33.679 0 0-324.864 252.662-324.864 252.662l-324.864-252.662c-10.394-8.090-16.466-20.521-16.466-33.679v-342.272c0-11.315 4.495-22.17 12.493-30.167s18.852-12.493 30.167-12.493h128c0 0 0 256 0 256 0 23.562 19.108 42.66 42.67 42.66h256c23.562 0 42.67-19.098 42.67-42.66v-256zM597.33-85.33c0 0 0 213.33 0 213.33s-170.66 0-170.66 0v-213.33c0 0 170.66 0 170.66 0z" />
<glyph unicode="&#xe965;" glyph-name="ballot-fill" data-tags="ballot-fill" d="M384 128c0 22.63-8.991 44.339-24.996 60.344-16.005 15.995-37.704 24.986-60.334 24.986-37.181 0-90.819 0-128 0-22.63 0-44.339-8.991-60.344-24.986-16.005-16.005-24.996-37.714-24.996-60.344 0-37.181 0-90.819 0-128 0-22.63 8.991-44.339 24.996-60.344 16.005-15.995 37.714-24.986 60.344-24.986 37.181 0 90.819 0 128 0 22.63 0 44.329 8.991 60.334 24.986 16.005 16.005 24.996 37.714 24.996 60.344v128zM512-42.67h256c23.552 0 42.67 19.118 42.67 42.67s-19.118 42.67-42.67 42.67h-256c-23.552 0-42.67-19.118-42.67-42.67s19.118-42.67 42.67-42.67zM512 85.33h384c23.552 0 42.67 19.118 42.67 42.67s-19.118 42.67-42.67 42.67h-384c-23.552 0-42.67-19.118-42.67-42.67s19.118-42.67 42.67-42.67zM384 512c0 22.63-8.991 44.339-24.996 60.344-16.005 15.995-37.704 24.986-60.334 24.986-37.181 0-90.819 0-128 0-22.63 0-44.339-8.991-60.344-24.986-16.005-16.005-24.996-37.714-24.996-60.344 0-37.181 0-90.819 0-128 0-22.63 8.991-44.339 24.996-60.344 16.005-15.995 37.714-24.986 60.344-24.986 37.181 0 90.819 0 128 0 22.63 0 44.329 8.991 60.334 24.986 16.005 16.005 24.996 37.714 24.996 60.344v128zM512 341.33h256c23.552 0 42.67 19.118 42.67 42.67s-19.118 42.67-42.67 42.67h-256c-23.552 0-42.67-19.118-42.67-42.67s19.118-42.67 42.67-42.67zM512 469.33h384c23.552 0 42.67 19.118 42.67 42.67s-19.118 42.67-42.67 42.67h-384c-23.552 0-42.67-19.118-42.67-42.67s19.118-42.67 42.67-42.67z" />
<glyph unicode="&#xe966;" glyph-name="ballot" data-tags="ballot" d="M384 128c0 22.63-8.991 44.339-24.996 60.344-16.005 15.995-37.704 24.986-60.334 24.986-37.181 0-90.819 0-128 0-22.63 0-44.339-8.991-60.344-24.986-16.005-16.005-24.996-37.714-24.996-60.344 0-37.181 0-90.819 0-128 0-22.63 8.991-44.339 24.996-60.344 16.005-15.995 37.714-24.986 60.344-24.986 37.181 0 90.819 0 128 0 22.63 0 44.329 8.991 60.334 24.986 16.005 16.005 24.996 37.714 24.996 60.344v128zM512-42.67h256c23.552 0 42.67 19.118 42.67 42.67s-19.118 42.67-42.67 42.67h-256c-23.552 0-42.67-19.118-42.67-42.67s19.118-42.67 42.67-42.67zM298.67 128c0 0 0-128 0-128s-128 0-128 0c0 0 0 128 0 128h128zM512 85.33h384c23.552 0 42.67 19.118 42.67 42.67s-19.118 42.67-42.67 42.67h-384c-23.552 0-42.67-19.118-42.67-42.67s19.118-42.67 42.67-42.67zM384 512c0 22.63-8.991 44.339-24.996 60.344-16.005 15.995-37.704 24.986-60.334 24.986-37.181 0-90.819 0-128 0-22.63 0-44.339-8.991-60.344-24.986-16.005-16.005-24.996-37.714-24.996-60.344 0-37.181 0-90.819 0-128 0-22.63 8.991-44.339 24.996-60.344 16.005-15.995 37.714-24.986 60.344-24.986 37.181 0 90.819 0 128 0 22.63 0 44.329 8.991 60.334 24.986 16.005 16.005 24.996 37.714 24.996 60.344v128zM512 341.33h256c23.552 0 42.67 19.118 42.67 42.67s-19.118 42.67-42.67 42.67h-256c-23.552 0-42.67-19.118-42.67-42.67s19.118-42.67 42.67-42.67zM298.67 512c0 0 0-128 0-128s-128 0-128 0c0 0 0 128 0 128h128zM512 469.33h384c23.552 0 42.67 19.118 42.67 42.67s-19.118 42.67-42.67 42.67h-384c-23.552 0-42.67-19.118-42.67-42.67s19.118-42.67 42.67-42.67z" />
<glyph unicode="&#xe967;" glyph-name="radar-fill" data-tags="radar-fill" d="M268.493 72.837l-170.66-170.67c-12.206-12.196-15.852-30.556-9.247-46.5 6.595-15.933 22.159-26.337 39.414-26.337h597.33c23.552 0 42.67 19.118 42.67 42.67s-19.118 42.67-42.67 42.67h-494.326c0 0 97.833 97.823 97.833 97.823 16.65 16.65 16.65 43.694 0 60.344s-43.694 16.65-60.344 0zM800.635 423.946l-185.631-185.62c-33.3-33.3-87.378-33.3-120.678 0s-33.3 87.378 0 120.678l188.365 188.365c-80.589 63.058-169.677 98.345-248.064 103.168-71.752 4.413-135.281-16.067-180.183-60.969-44.913-44.902-65.393-108.442-60.969-180.183 5.929-96.41 57.938-208.998 151.030-302.090s205.681-145.101 302.090-151.030c71.741-4.424 135.281 16.056 180.183 60.969 44.902 44.902 65.382 108.431 60.969 180.183-4.403 71.465-34.12 151.818-87.112 226.529zM865.833 670.167l-341.34-341.33c-16.65-16.65-16.65-43.694 0-60.344s43.694-16.65 60.344 0l341.33 341.34c16.65 16.65 16.65 43.684 0 60.334s-43.684 16.65-60.334 0z" />
<glyph unicode="&#xe968;" glyph-name="radar" data-tags="radar" d="M268.493 72.837l-170.66-170.67c-12.206-12.196-15.852-30.556-9.247-46.5 6.595-15.933 22.159-26.337 39.414-26.337h597.33c23.552 0 42.67 19.118 42.67 42.67s-19.118 42.67-42.67 42.67h-494.326c0 0 97.833 97.823 97.833 97.823 16.65 16.65 16.65 43.694 0 60.344s-43.694 16.65-60.344 0zM800.635 423.946c52.992-74.711 82.708-155.064 87.112-226.529 4.413-71.752-16.067-135.281-60.969-180.183-44.902-44.913-108.442-65.393-180.183-60.969-96.41 5.929-208.998 57.938-302.090 151.030s-145.101 205.681-151.030 302.090c-4.424 71.741 16.056 135.281 60.969 180.183 44.902 44.902 108.431 65.382 180.183 60.969 78.387-4.823 167.475-40.11 248.064-103.168l-60.795-60.795c-63.13 47.473-131.441 75.028-192.512 78.787-45.322 2.796-86.241-7.762-114.606-36.127-28.365-28.375-38.922-69.284-36.137-114.606 4.874-79.176 49.746-170.537 126.208-246.989 76.452-76.462 167.813-121.334 246.989-126.208 45.322-2.785 86.231 7.772 114.606 36.137 28.365 28.365 38.922 69.284 36.127 114.606-3.318 54.036-25.283 113.746-63.191 170.527l61.256 61.245zM865.833 670.167l-341.34-341.33c-16.65-16.65-16.65-43.694 0-60.344s43.694-16.65 60.344 0l341.33 341.34c16.65 16.65 16.65 43.684 0 60.334s-43.684 16.65-60.334 0z" />
<glyph unicode="&#xe969;" glyph-name="bar_chart-fill" data-tags="bar_chart-fill" d="M938.67 597.33c0 22.63-8.991 44.339-24.996 60.344s-37.704 24.996-60.344 24.996h-85.33c-22.63 0-44.339-8.991-60.344-24.996-15.995-16.005-24.986-37.714-24.986-60.344 0-134.431 0-548.229 0-682.66 0-22.63 8.991-44.339 24.986-60.344 16.005-16.005 37.714-24.996 60.344-24.996h85.33c22.641 0 44.339 8.991 60.344 24.996s24.996 37.714 24.996 60.344v682.66zM341.33 85.33c0 22.63-8.991 44.339-24.986 60.344-16.005 16.005-37.714 24.996-60.344 24.996h-85.33c-22.641 0-44.339-8.991-60.344-24.996s-24.996-37.714-24.996-60.344c0-47.35 0-123.31 0-170.66 0-22.63 8.991-44.339 24.996-60.344s37.704-24.996 60.344-24.996h85.33c22.63 0 44.339 8.991 60.344 24.996 15.995 16.005 24.986 37.714 24.986 60.344v170.66zM640 341.33c0 47.135-38.205 85.34-85.33 85.34h-85.34c-47.124 0-85.33-38.205-85.33-85.34 0-96.42 0-330.24 0-426.66 0-47.135 38.205-85.34 85.33-85.34h85.34c47.124 0 85.33 38.205 85.33 85.34v426.66z" />
<glyph unicode="&#xe96a;" glyph-name="bar_chart" data-tags="bar_chart" d="M938.67 597.33c0 22.63-8.991 44.339-24.996 60.344s-37.704 24.996-60.344 24.996h-85.33c-22.63 0-44.339-8.991-60.344-24.996-15.995-16.005-24.986-37.714-24.986-60.344 0-134.431 0-548.229 0-682.66 0-22.63 8.991-44.339 24.986-60.344 16.005-16.005 37.714-24.996 60.344-24.996h85.33c22.641 0 44.339 8.991 60.344 24.996s24.996 37.714 24.996 60.344v682.66zM341.33 85.33c0 22.63-8.991 44.339-24.986 60.344-16.005 16.005-37.714 24.996-60.344 24.996h-85.33c-22.641 0-44.339-8.991-60.344-24.996s-24.996-37.714-24.996-60.344c0-47.35 0-123.31 0-170.66 0-22.63 8.991-44.339 24.996-60.344s37.704-24.996 60.344-24.996h85.33c22.63 0 44.339 8.991 60.344 24.996 15.995 16.005 24.986 37.714 24.986 60.344v170.66zM640 341.33v-426.66c0-47.135-38.205-85.34-85.33-85.34h-85.34c-47.124 0-85.33 38.205-85.33 85.34 0 96.42 0 330.24 0 426.66 0 47.135 38.205 85.34 85.33 85.34h85.34c47.124 0 85.33-38.205 85.33-85.34zM768 597.33h85.33c0 0 0-682.66 0-682.66s-85.33 0-85.33 0v682.66zM469.33 341.33v-426.66h85.34c0 0 0 426.66 0 426.66s-85.34 0-85.34 0zM170.67 85.33c0 0 85.33 0 85.33 0s0-170.66 0-170.66c0 0-85.33 0-85.33 0v170.66z" />
<glyph unicode="&#xe96b;" glyph-name="tools" data-tags="tools" d="M396.493 183.163c16.671 16.66 43.684 16.66 60.344 0 8.11-8.11 16.886-16.886 24.996-24.996 16.66-16.66 16.66-43.674 0-60.334-57.262-57.262-181.074-181.074-238.326-238.326-16.671-16.671-43.684-16.671-60.344 0-8.11 8.11-16.886 16.876-24.996 24.986-16.66 16.671-16.66 43.684 0 60.344 57.262 57.262 181.074 181.064 238.326 238.326zM554.67 640c0 0-213.34 42.67-341.34-128-5.612-60.385-38.257-82.954-85.33-85.33 0 0-5.468-5.478-12.493-12.503-8.008-7.997-12.503-18.852-12.503-30.167s4.495-22.17 12.503-30.167c8.11-8.11 16.876-16.886 24.986-24.996 8.008-7.997 18.862-12.493 30.177-12.493s22.17 4.495 30.167 12.493c7.025 7.025 12.493 12.493 12.493 12.493 4.772 83.528 85.34 85.34 128 42.67 0 0 372.019-372.009 481.833-481.833 16.66-16.66 43.674-16.66 60.344 0 8.11 8.11 16.876 16.886 24.986 24.996 16.671 16.66 16.671 43.674 0 60.344-109.814 109.814-481.823 481.823-481.823 481.823-53.903 64.328 10.22 119.562 128 170.67zM652.493 328.837c8.008-7.997 18.862-12.493 30.177-12.493s22.17 4.495 30.167 12.493c7.025 7.025 12.493 12.493 12.493 12.493 114.647-31.007 184.576 13.65 213.34 128-11.407 13.353-25.324 14.817-42.67 0-153.498-159.805-280.955 11.203-128 128 10.742 15.329 12.687 29.747 0 42.67-118.026-33.72-161.208-104.581-128-213.33 0 0-5.468-5.478-12.493-12.503-8.008-7.997-12.503-18.852-12.503-30.167s4.495-22.17 12.503-30.167c8.11-8.11 16.876-16.886 24.986-24.996z" />
<glyph unicode="&#xe96c;" glyph-name="core" data-tags="core" d="M632.607 529.541c26.614-21.709 53.443-45.916 80.23-72.704 136.346-136.346 205.691-273.592 220.959-380.488 11.827-82.79-8.049-149.617-50.289-191.857s-109.066-62.116-191.857-50.289c-106.895 15.268-244.142 84.613-380.488 220.959-26.788 26.788-50.995 53.617-72.704 80.241 10.721 26.634 25.068 54.487 43.069 83.169 25.395-33.884 55.347-68.444 89.979-103.066 119.654-119.665 238.397-183.429 332.216-196.833 51.036-7.291 93.399 0.123 119.439 26.163s33.454 68.403 26.163 119.439c-13.404 93.819-77.169 212.562-196.833 332.216-34.621 34.632-69.181 64.584-103.066 89.979 28.672 17.992 56.535 32.338 83.18 43.069zM443.197-134.134c-39.373-16.374-76.667-26.788-110.848-31.662-82.79-11.827-149.617 8.049-191.857 50.289s-62.116 109.066-50.289 191.857c15.268 106.895 84.613 244.142 220.959 380.488s273.592 205.691 380.488 220.959c82.79 11.827 149.617-8.049 191.846-50.289l0.010-0.010c42.24-42.23 62.116-109.056 50.289-191.846-4.874-34.181-15.288-71.475-31.662-110.848-18.442 26.87-38.953 54.088-61.594 81.459 3.953 14.275 6.881 28.119 8.786 41.462 7.291 51.036-0.123 93.399-26.163 119.439v0c-26.040 26.040-68.403 33.454-119.439 26.163-93.819-13.404-212.562-77.169-332.216-196.833-119.665-119.654-183.429-238.397-196.833-332.216-7.291-51.036 0.123-93.399 26.163-119.439s68.403-33.454 119.439-26.163c13.343 1.905 27.187 4.833 41.462 8.786 27.382-22.641 54.589-43.151 81.459-61.594zM755.282 236.155c19.569-26.563 35.686-52.603 48.476-77.722-26.153-34.14-56.381-68.731-90.921-103.27s-69.13-64.768-103.27-90.921c-25.108 12.79-51.159 28.908-77.722 48.476 39.485 27.955 80.015 62.147 120.648 102.789 40.643 40.632 74.834 81.162 102.789 120.648zM512 341.33c47.094 0 85.33-38.236 85.33-85.33s-38.236-85.33-85.33-85.33c-47.094 0-85.33 38.236-85.33 85.33s38.236 85.33 85.33 85.33zM132.465 300.81c-22.559 48.251-36.403 93.788-42.26 134.84-11.827 82.79 8.049 149.617 50.289 191.857s109.066 62.116 191.857 50.289c41.052-5.857 86.589-19.702 134.84-42.26-27.443-16.681-55.398-35.891-83.599-57.754-22.098 7.516-43.274 12.677-63.314 15.544-51.036 7.291-93.399-0.123-119.439-26.163s-33.454-68.403-26.163-119.439c2.867-20.050 8.028-41.236 15.544-63.314-21.862-28.211-41.073-56.166-57.754-83.599z" />
<glyph unicode="&#xe96d;" glyph-name="trending-up" data-tags="trending-up" d="M85.33 640v-682.67c0-33.946 13.486-66.499 37.489-90.511 24.013-24.003 56.566-37.489 90.511-37.489 200.090 0 682.67 0 682.67 0 23.552 0 42.67 19.118 42.67 42.67s-19.118 42.67-42.67 42.67h-682.67c-11.315 0-22.17 4.495-30.167 12.493s-12.493 18.852-12.493 30.167v682.67c0 23.552-19.118 42.67-42.67 42.67s-42.67-19.118-42.67-42.67zM792.996 384l-195.666-195.656c0 0-97.823 97.823-97.823 97.823-13.844 13.844-35.338 16.497-52.122 6.42l-213.34-128c-20.193-12.114-26.747-38.349-14.633-58.542s38.349-26.747 58.542-14.633l184.76 110.858c0 0 104.448-104.438 104.448-104.438 16.66-16.66 43.674-16.66 60.344 0l225.823 225.823v-110.326c0-23.542 19.118-42.66 42.67-42.66s42.67 19.118 42.67 42.66v213.34c0 7.27-1.823 14.121-5.038 20.122-1.546 2.888-3.441 5.632-5.704 8.182l-0.788 0.86-0.594 0.625-0.768 0.768-0.799 0.758-0.676 0.614c-2.54 2.253-5.294 4.157-8.182 5.704-5.99 3.205-12.841 5.028-20.122 5.028h-213.33c-23.552 0-42.67-19.118-42.67-42.66 0-23.552 19.118-42.67 42.67-42.67h110.326z" />
</font>
</defs>
</svg>
